<?xml version="1.0" standalone="no"?>
<!DOCTYPE svg PUBLIC "-//W3C//DTD SVG 20010904//EN"
 "http://www.w3.org/TR/2001/REC-SVG-20010904/DTD/svg10.dtd">
<svg version="1.0" xmlns="http://www.w3.org/2000/svg"
 width="700.000000pt" height="700.000000pt" viewBox="0 0 700.000000 700.000000"
 preserveAspectRatio="xMidYMid meet">
<metadata>
Created by potrace 1.11, written by Peter Selinger 2001-2013
</metadata>
<g transform="translate(0.000000,700.000000) scale(0.100000,-0.100000)"
fill="#000000" stroke="none">
<path d="M3368 6995 c-2 -1 -50 -5 -108 -9 -58 -3 -114 -8 -125 -10 -11 -2
-46 -7 -79 -11 -32 -3 -68 -8 -80 -10 -11 -2 -37 -6 -56 -9 -319 -47 -743
-196 -1068 -373 -321 -176 -554 -351 -817 -617 -522 -527 -859 -1205 -960
-1931 -3 -23 -7 -50 -9 -60 -34 -181 -22 -826 19 -975 2 -8 7 -37 10 -64 3
-27 7 -51 9 -55 3 -4 7 -26 11 -49 3 -23 21 -102 40 -175 212 -829 706 -1542
1405 -2029 409 -285 948 -497 1435 -563 28 -4 61 -8 75 -10 180 -26 674 -26
830 -1 14 3 47 7 74 11 251 32 553 111 809 211 649 257 1189 689 1582 1268 45
67 90 137 101 156 10 19 24 42 30 50 31 39 188 371 237 500 80 208 162 497
182 640 3 25 10 63 15 85 9 45 15 85 34 260 12 114 14 561 2 612 -2 12 -7 48
-11 80 -11 98 -19 155 -31 218 -2 11 -7 34 -10 50 -35 197 -125 487 -221 715
-116 277 -337 637 -523 855 -126 148 -269 292 -424 429 -219 193 -575 412
-891 546 -156 67 -452 161 -575 184 -14 2 -59 11 -100 20 -41 9 -91 18 -110
20 -19 3 -48 7 -65 10 -95 15 -284 28 -447 31 -103 1 -189 1 -190 0z m392
-279 c87 -6 215 -20 267 -30 12 -3 43 -8 70 -12 26 -5 50 -9 53 -9 3 -1 23 -5
45 -9 101 -20 312 -82 435 -128 959 -356 1677 -1134 1969 -2132 22 -74 42
-151 45 -172 4 -22 11 -55 16 -74 10 -41 37 -218 45 -305 3 -33 8 -80 10 -105
11 -112 5 -445 -11 -580 -3 -30 -8 -70 -10 -88 -8 -80 -47 -281 -74 -389 -90
-350 -238 -684 -435 -978 -55 -83 -106 -157 -112 -165 -7 -8 -50 -60 -95 -115
-78 -94 -245 -267 -335 -345 -339 -299 -779 -540 -1207 -662 -22 -6 -45 -13
-51 -14 -23 -8 -212 -53 -240 -58 -163 -30 -247 -42 -367 -53 -102 -10 -499
-10 -588 -1 -462 48 -873 184 -1257 415 -109 66 -251 162 -316 213 -434 346
-755 735 -974 1181 -60 121 -135 304 -166 404 -32 103 -57 191 -61 215 -2 14
-9 43 -14 65 -12 43 -19 79 -28 135 -2 19 -7 46 -9 60 -3 14 -7 42 -10 62 -3
21 -7 53 -9 70 -32 238 -23 631 20 868 2 14 7 40 10 59 3 18 8 43 10 55 2 11
7 35 9 51 20 114 118 438 167 555 10 25 24 58 31 75 7 16 42 90 78 165 61 123
83 163 174 314 17 26 70 103 119 170 339 463 781 817 1301 1044 242 105 553
192 820 228 22 3 51 7 65 9 14 2 72 7 130 10 58 4 106 8 107 9 4 4 283 -2 373
-8z"/>
<path d="M3467 6424 c-1 -1 -56 -5 -122 -8 -66 -4 -133 -9 -150 -11 -16 -2
-55 -6 -85 -10 -30 -3 -62 -8 -70 -10 -8 -2 -32 -6 -52 -9 -153 -23 -400 -95
-573 -167 -347 -144 -632 -335 -919 -615 -111 -108 -275 -313 -388 -484 -75
-113 -203 -355 -261 -490 -72 -172 -163 -510 -182 -685 -4 -33 -9 -69 -11 -80
-20 -109 -20 -545 0 -652 3 -11 7 -43 11 -70 4 -26 9 -59 11 -73 2 -14 7 -43
10 -65 8 -57 68 -285 99 -379 133 -403 397 -834 686 -1116 373 -366 693 -565
1157 -720 172 -57 224 -67 242 -45 12 14 13 76 5 295 -4 120 -15 337 -20 372
-14 115 -55 186 -163 285 -153 139 -329 328 -407 437 -11 16 -25 33 -30 40 -6
6 -35 45 -65 86 -217 299 -436 525 -661 682 -122 86 -146 146 -86 211 102 107
262 119 452 32 92 -42 175 -96 375 -245 150 -112 219 -153 275 -166 174 -41
233 -10 249 129 28 236 29 941 2 1307 -2 25 -7 104 -11 175 -3 72 -8 150 -10
175 -18 255 -22 394 -12 448 9 53 45 118 86 155 44 40 132 76 176 72 17 -2 35
-3 42 -4 26 -2 43 -63 58 -214 4 -32 8 -66 10 -76 2 -10 6 -42 10 -72 3 -30 8
-65 10 -79 2 -14 7 -45 10 -70 5 -45 13 -102 20 -150 2 -14 11 -81 20 -150 9
-69 18 -140 21 -157 2 -18 6 -49 9 -68 2 -19 13 -103 24 -187 11 -84 23 -173
26 -197 10 -77 -11 -144 -61 -200 -24 -27 -40 -52 -35 -55 5 -4 12 -2 16 3 17
28 143 70 232 78 38 3 70 7 72 9 8 7 -13 25 -58 50 -59 34 -67 46 -76 115 -3
30 -8 65 -10 79 -2 14 -7 50 -10 80 -3 30 -8 66 -10 80 -5 34 -31 230 -51 390
-2 19 -6 52 -9 73 -3 20 -7 54 -10 75 -9 70 -15 117 -20 167 -3 28 -7 61 -10
75 -2 14 -7 43 -9 65 -14 111 -27 213 -31 240 -5 39 -15 112 -19 151 -7 53 25
108 77 133 117 56 216 31 266 -68 16 -30 34 -132 56 -306 2 -16 9 -66 16 -109
6 -44 13 -93 15 -110 2 -17 6 -47 8 -66 6 -37 15 -101 20 -148 2 -16 9 -64 15
-108 14 -97 18 -125 26 -189 3 -27 10 -75 15 -105 6 -30 12 -73 15 -95 5 -45
24 -183 31 -235 26 -180 35 -205 79 -216 41 -10 54 2 94 88 59 126 107 251
209 538 38 108 202 558 217 595 4 11 9 25 10 30 9 34 51 136 72 172 33 57 65
76 130 76 70 0 136 -40 177 -107 26 -42 30 -57 30 -120 -1 -123 -19 -190 -129
-472 -168 -427 -185 -471 -250 -639 -37 -93 -76 -184 -87 -201 -23 -34 -59
-51 -100 -50 -15 1 -26 1 -25 0 1 -1 33 -19 71 -39 37 -20 92 -54 121 -76 28
-21 54 -39 57 -39 10 0 2 34 -16 75 -9 22 -18 51 -18 65 -1 20 127 354 197
515 8 17 34 84 59 150 155 410 159 419 216 417 82 -2 153 -82 143 -161 -3 -28
-52 -260 -108 -511 -89 -398 -136 -625 -150 -710 -3 -19 -8 -42 -10 -50 -2 -8
-7 -42 -10 -75 -4 -33 -9 -76 -11 -95 -6 -50 -12 -195 -15 -340 -1 -112 -6
-175 -24 -303 -28 -211 -117 -417 -262 -612 -130 -173 -127 -158 -127 -556 -1
-412 0 -436 25 -449 32 -18 293 76 503 182 178 90 405 240 562 373 185 156
410 412 553 630 87 132 234 427 290 582 83 229 142 501 167 766 12 134 6 467
-10 553 -2 10 -7 46 -11 79 -3 33 -10 78 -15 100 -5 22 -11 56 -14 75 -6 36
-32 141 -60 242 -75 271 -250 629 -425 871 -363 501 -859 865 -1443 1058 -139
46 -367 99 -487 114 -30 4 -62 8 -72 10 -34 7 -376 23 -382 19z m342 -288 c19
-3 77 -13 130 -21 722 -115 1404 -592 1808 -1265 94 -156 203 -404 238 -542
34 -130 54 -216 59 -252 4 -21 8 -41 10 -45 2 -3 7 -31 10 -61 4 -30 8 -68 11
-85 25 -180 25 -536 1 -705 -14 -96 -31 -188 -50 -268 -128 -555 -512 -1120
-1014 -1490 -225 -166 -529 -321 -533 -271 -1 8 -3 37 -5 64 -23 252 5 348
166 578 168 241 213 378 225 682 5 124 10 202 20 325 16 181 20 213 41 349 8
51 16 108 19 125 4 28 36 216 50 290 3 16 22 97 41 180 19 83 36 162 39 176 2
14 22 100 44 190 22 91 43 181 46 200 3 19 8 43 11 52 19 65 21 170 4 223 -28
84 -72 138 -163 196 -53 35 -59 50 -53 129 13 172 -89 334 -264 418 -47 22
-69 26 -145 27 -77 0 -98 -4 -145 -26 -61 -29 -120 -84 -155 -144 -13 -22 -40
-92 -61 -155 -20 -63 -71 -207 -112 -320 -40 -113 -78 -216 -82 -230 -27 -83
-81 -223 -93 -240 -14 -20 -15 -19 -20 17 -3 21 -11 65 -16 98 -6 33 -13 78
-16 100 -3 22 -8 49 -9 60 -5 28 -57 393 -62 435 -3 19 -12 82 -20 140 -9 58
-18 119 -19 137 -8 68 -27 159 -46 208 -45 120 -154 193 -301 202 -143 9 -251
-36 -346 -143 -42 -49 -54 -56 -122 -75 -41 -11 -97 -32 -125 -47 -109 -58
-198 -183 -225 -314 -18 -88 -16 -252 5 -423 6 -45 12 -156 21 -385 3 -85 8
-186 10 -225 10 -147 12 -979 3 -1004 -26 -69 -63 -59 -209 53 -204 158 -290
216 -409 275 -208 105 -393 118 -556 40 -82 -39 -92 -46 -151 -106 -88 -90
-107 -190 -55 -298 37 -79 87 -128 256 -257 198 -150 302 -262 540 -578 166
-222 279 -351 442 -510 188 -182 196 -198 195 -393 -2 -164 -3 -170 -50 -164
-21 3 -55 12 -77 22 -22 9 -56 24 -75 32 -183 77 -435 230 -610 370 -105 84
-326 303 -406 403 -316 393 -495 835 -551 1360 -4 41 -8 183 -7 315 0 219 4
294 20 380 3 17 7 39 9 50 29 205 119 483 226 698 86 171 250 419 354 533 5 6
37 42 70 79 290 327 656 570 1065 708 68 23 161 50 167 48 2 0 21 6 43 14 22
8 43 14 45 14 3 -1 47 7 98 16 184 32 310 41 547 39 129 -2 250 -5 269 -8z"/>
<path d="M3190 2692 c0 -4 26 -23 58 -41 193 -114 310 -264 363 -467 22 -88
33 -288 18 -354 -5 -22 -6 -52 -3 -67 6 -22 8 -23 16 -9 19 34 27 76 15 76 -9
0 -9 2 0 8 6 4 14 25 17 47 4 23 9 52 11 65 50 251 -5 461 -164 620 -91 91
-170 130 -263 130 -37 0 -68 -3 -68 -8z"/>
</g>
</svg>
