<?xml version="1.0" encoding="UTF-8"?>
<svg width="9px" height="14px" viewBox="0 0 9 14" version="1.1" xmlns="http://www.w3.org/2000/svg" xmlns:xlink="http://www.w3.org/1999/xlink">
    <!-- Generator: Sketch 51.3 (57544) - http://www.bohemiancoding.com/sketch -->
    <title>angle</title>
    <desc>Created with Sketch.</desc>
    <defs></defs>
    <g id="Page-1" stroke="none" stroke-width="1" fill="none" fill-rule="evenodd">
        <g id="Instructions-Copy" transform="translate(-82.000000, -578.000000)" fill="#8DB5EC">
            <g id="angle" transform="translate(82.000000, 578.000000)">
                <path d="M2.57746658,6.997288 L7.97986239,1.59506091 C8.07147704,1.50344626 8.1172,1.39799663 8.1172,1.27888072 C8.1172,1.15976481 8.07147704,1.05431517 7.97986239,0.962869242 L7.29249948,0.275506327 C7.20088483,0.183891682 7.09543519,0.138 6.976488,0.138 C6.85737209,0.138 6.75192246,0.183891682 6.66030781,0.275506327 L0.254537608,6.68110781 C0.162922963,6.77272246 0.1172,6.87817209 0.1172,6.997288 C0.1172,7.11640391 0.162922963,7.22185355 0.254537608,7.3134682 L6.66013909,13.7190697 C6.75175374,13.810853 6.85720337,13.856576 6.97631928,13.856576 C7.09526648,13.856576 7.20071611,13.810853 7.29233076,13.7190697 L7.97969367,13.0320442 C8.07130832,12.9404296 8.11703128,12.8349799 8.11703128,12.7156953 C8.11703128,12.5967481 8.07130832,12.4912985 7.97969367,12.3996838 L2.57746658,6.997288 L2.57746658,6.997288 Z" id="Shape"></path>
            </g>
        </g>
    </g>
</svg>