<?xml version="1.0" encoding="UTF-8"?>
<svg width="10px" height="17px" viewBox="0 0 10 17" version="1.1" xmlns="http://www.w3.org/2000/svg" xmlns:xlink="http://www.w3.org/1999/xlink">
    <!-- Generator: Sketch 51.3 (57544) - http://www.bohemiancoding.com/sketch -->
    <title>angle</title>
    <desc>Created with Sketch.</desc>
    <defs></defs>
    <g id="Page-1" stroke="none" stroke-width="1" fill="none" fill-rule="evenodd">
        <g id="Instructions-Copy" transform="translate(-82.000000, -578.000000)" fill="#8DB5EC">
            <g id="angle" transform="translate(82.000000, 578.000000)">
                <path d="M3.06841259,8.33010477 L9.49983618,1.89888203 C9.60890123,1.78981698 9.66333333,1.6642817 9.66333333,1.52247704 C9.66333333,1.38067239 9.60890123,1.2551371 9.49983618,1.14627291 L8.681547,0.327983723 C8.57248194,0.218918669 8.44694666,0.164285714 8.30534286,0.164285714 C8.16353821,0.164285714 8.03800292,0.218918669 7.92893787,0.327983723 L0.303020961,7.95369978 C0.193955908,8.06276483 0.13952381,8.18830011 0.13952381,8.33010477 C0.13952381,8.47190942 0.193955908,8.5974447 0.303020961,8.70650976 L7.92873701,16.3322258 C8.03780207,16.4414917 8.16333735,16.4959238 8.30514201,16.4959238 C8.4467458,16.4959238 8.57228109,16.4414917 8.68134614,16.3322258 L9.49963533,15.5143383 C9.60870038,15.4052733 9.66313248,15.279738 9.66313248,15.1377325 C9.66313248,14.9961287 9.60870038,14.8705934 9.49963533,14.7615284 L3.06841259,8.33010477 L3.06841259,8.33010477 Z" id="Shape"></path>
            </g>
        </g>
    </g>
</svg>