<?xml version="1.0" encoding="UTF-8"?>
<svg width="100px" height="100px" viewBox="0 0 100 100" version="1.1" xmlns="http://www.w3.org/2000/svg" xmlns:xlink="http://www.w3.org/1999/xlink">
    <!-- Generator: Sketch 51.3 (57544) - http://www.bohemiancoding.com/sketch -->
    <title>lizard</title>
    <desc>Created with Sketch.</desc>
    <defs></defs>
    <g id="Page-1" stroke="none" stroke-width="1" fill="none" fill-rule="evenodd">
        <g id="Player-vs-Bot" transform="translate(-138.000000, -400.000000)" fill-rule="nonzero">
            <g id="lizard" transform="translate(138.000000, 400.000000)">
                <path d="M49.8511905,0.0297619048 C76.6666667,0.0892857143 99.4047619,20.952381 99.702381,49.1071429 C100.029762,79.6130952 75.5059524,99.7916667 49.8511905,99.7321429 C22.2916667,99.702381 0,77.3511905 0.0297619048,49.7916667 C0.0297619048,22.3511905 22.3511905,0.0297619048 49.8511905,0.0297619048 Z M45.922619,96.0119048 C75.6845238,95.922619 96.1607143,75.297619 96.1607143,50.0297619 C96.1607143,24.5535714 75.5059524,4.01785714 50.0595238,4.07738095 C24.4940476,4.13690476 3.63095238,25.1488095 4.22619048,51.0119048 C4.52380952,63.5119048 9.16666667,74.2559524 18.1547619,82.9761905 C27.1428571,91.6964286 38.0357143,95.922619 45.922619,96.0119048 Z" id="Shape" fill="#6F88BE"></path>
                <path d="M45.922619,96.0119048 C38.0357143,95.922619 27.1428571,91.6964286 18.1845238,82.9761905 C9.22619048,74.2559524 4.52380952,63.5119048 4.25595238,51.0119048 C3.66071429,25.1488095 24.4940476,4.13690476 50.0892857,4.07738095 C75.5059524,4.01785714 96.1607143,24.5535714 96.1607143,50.0297619 C96.1607143,75.297619 75.6845238,95.922619 45.922619,96.0119048 Z M27.9761905,84.5833333 L28.125,84.702381 L28.0059524,84.5238095 C27.6785714,79.3154762 27.1130952,74.1369048 25.952381,69.077381 C24.4940476,62.797619 24.8511905,56.7261905 26.1904762,50.5357143 C27.0833333,46.4285714 28.2142857,42.3511905 28.5119048,38.1547619 C28.6309524,36.6071429 29.375,35.1785714 30.5654762,34.1964286 C31.5178571,33.3928571 32.5595238,32.7083333 33.6607143,32.172619 C38.3630952,29.8809524 43.1845238,27.797619 47.7380952,25.1488095 C49.6130952,24.047619 51.6666667,24.1666667 53.6011905,25.0892857 C60.0297619,28.1845238 66.4285714,31.3392857 73.0952381,33.8690476 C74.2857143,34.3154762 74.5535714,35.2380952 74.2857143,36.6666667 C73.3630952,35.4464286 72.2321429,35.2083333 71.1904762,34.7916667 C65.6845238,32.7083333 60.0297619,31.0119048 54.8214286,28.2142857 C53.3333333,27.4107143 51.7559524,27.5 50.2083333,28.1845238 C46.3392857,29.8809524 42.3809524,31.3095238 38.4821429,32.827381 C38.2142857,32.9166667 37.7083333,32.9166667 37.9166667,33.5416667 C38.6011905,33.6607143 39.2261905,33.3333333 39.8809524,33.125 C43.452381,31.9345238 46.9940476,30.7142857 50.5654762,29.4940476 C52.0238095,28.9285714 53.6607143,29.077381 54.9702381,29.8809524 C57.0833333,31.0714286 59.2857143,32.0833333 61.6071429,32.8571429 C64.9107143,34.047619 68.2142857,35.297619 71.5178571,36.4583333 C72.6785714,36.875 72.9166667,37.5 72.6190476,38.6011905 C71.9940476,40.952381 70.3571429,42.0238095 67.9166667,41.4880952 C66.7559524,41.25 65.625,40.8928571 64.4642857,40.625 C59.3452381,39.3452381 54.2261905,38.1547619 48.9285714,39.2559524 C47.0833333,39.6428571 45.2678571,40.1785714 43.6904762,41.2797619 C42.5595238,42.0535714 42.2321429,43.0952381 42.6488095,44.4047619 C43.3928571,46.7261905 45.8630952,48.7202381 48.3035714,48.8392857 C51.4285714,48.9583333 54.4047619,48.3333333 57.0535714,46.577381 C58.0952381,45.8928571 59.1369048,45.2083333 60.327381,44.8511905 C62.3809524,44.2559524 64.4345238,44.047619 66.3392857,45.3571429 C67.9166667,46.4583333 67.9761905,47.7083333 66.3988095,48.75 C61.7857143,51.7559524 57.5595238,55.297619 53.75,59.2857143 C51.6071429,61.547619 48.8392857,63.125 46.6369048,65.3571429 C45.8333333,66.1607143 45.2380952,67.0238095 45.2083333,68.1845238 C45.1190476,75.5357143 45.327381,82.8571429 46.7857143,90.0892857 C46.9345238,90.8630952 47.2916667,91.1607143 48.0654762,91.1607143 C50.2380952,91.1309524 52.4107143,91.1607143 54.6130952,90.922619 C78.125,88.422619 94.9404762,66.0416667 90.7440476,42.7380952 C86.577381,19.2857143 63.6904762,3.95833333 40.5952381,9.67261905 C23.5119048,13.8690476 12.6785714,25.0595238 9.46428571,42.3214286 C6.25,59.5833333 12.5595238,73.5416667 26.6666667,83.9583333 C27.0535714,84.2261905 27.4107143,84.6130952 27.9761905,84.5833333 Z" id="Shape" fill="#FCFCFD"></path>
                <path d="M27.9761905,84.5833333 C27.4107143,84.6130952 27.0535714,84.2261905 26.6964286,83.9583333 C12.5892857,73.5416667 6.2797619,59.5833333 9.49404762,42.3511905 C12.7083333,25.1190476 23.5119048,13.8690476 40.5654762,9.67261905 C63.6607143,3.95833333 86.547619,19.3154762 90.7440476,42.7380952 C94.9107143,66.0119048 78.0952381,88.422619 54.6130952,90.922619 C52.4404762,91.1607143 50.2678571,91.1309524 48.0654762,91.1607143 C47.2916667,91.1607143 46.9345238,90.8630952 46.7857143,90.0892857 C45.327381,82.8571429 45.1190476,75.5357143 45.2083333,68.1845238 C45.2380952,66.9940476 45.8333333,66.1309524 46.6369048,65.3571429 C48.8392857,63.125 51.6071429,61.547619 53.75,59.2857143 C57.5595238,55.297619 61.8154762,51.7559524 66.3988095,48.75 C67.9464286,47.7083333 67.9166667,46.4583333 66.3392857,45.3571429 C64.4642857,44.047619 62.4107143,44.2559524 60.327381,44.8511905 C59.1369048,45.2083333 58.0654762,45.8928571 57.0535714,46.577381 C54.375,48.3333333 51.4285714,48.9583333 48.3035714,48.8392857 C45.8928571,48.75 43.422619,46.7559524 42.6488095,44.4047619 C42.2321429,43.0952381 42.5297619,42.0833333 43.6904762,41.2797619 C45.2678571,40.1785714 47.0833333,39.6428571 48.9285714,39.2559524 C54.2559524,38.1547619 59.375,39.3452381 64.4642857,40.625 C65.625,40.922619 66.7559524,41.25 67.9166667,41.4880952 C70.3571429,41.9940476 71.9940476,40.952381 72.6190476,38.6011905 C72.9166667,37.5 72.6785714,36.875 71.5178571,36.4583333 C68.1845238,35.327381 64.9107143,34.077381 61.6071429,32.8571429 C59.3154762,32.0833333 57.0833333,31.0714286 54.9702381,29.8809524 C53.6309524,29.077381 51.9940476,28.9285714 50.5654762,29.4940476 C47.0238095,30.7142857 43.452381,31.9345238 39.8809524,33.125 C39.2559524,33.3333333 38.6309524,33.6607143 37.9166667,33.5416667 C37.7083333,32.8869048 38.2142857,32.9166667 38.4821429,32.827381 C42.4107143,31.3095238 46.3690476,29.8809524 50.2083333,28.1845238 C51.7261905,27.5297619 53.3035714,27.4107143 54.8214286,28.2142857 C60.0297619,31.0416667 65.6845238,32.7380952 71.1904762,34.7916667 C72.2321429,35.1785714 73.3928571,35.4464286 74.2857143,36.6666667 C74.5238095,35.2083333 74.2857143,34.3154762 73.0952381,33.8690476 C66.4285714,31.3392857 60.0297619,28.1547619 53.6011905,25.0892857 C51.6666667,24.1666667 49.6130952,24.047619 47.7380952,25.1488095 C43.2142857,27.797619 38.3928571,29.8809524 33.6607143,32.172619 C32.5297619,32.7083333 31.4880952,33.3928571 30.5654762,34.1964286 C29.3452381,35.1785714 28.6011905,36.6071429 28.5119048,38.1547619 C28.2142857,42.3809524 27.0833333,46.4285714 26.1904762,50.5357143 C24.8511905,56.6964286 24.5238095,62.797619 25.952381,69.077381 C27.1130952,74.1071429 27.6488095,79.3154762 28.0059524,84.5238095 L27.9761905,84.5833333 Z M68.8095238,44.047619 C68.6904762,43.9880952 68.6011905,43.9285714 68.4821429,43.8690476 L68.3928571,43.9583333 L68.75,44.1369048 C68.8095238,44.375 68.8988095,44.6130952 68.9880952,44.8214286 C70.3571429,47.5892857 70.2380952,49.077381 67.6488095,50.5952381 C60.625,54.7916667 55.6547619,61.3690476 49.077381,66.0416667 C47.7678571,66.9642857 47.2321429,68.2440476 47.3214286,69.8809524 C47.5297619,73.1845238 47.5,76.5178571 47.6785714,79.8214286 C47.7678571,81.7559524 48.0654762,83.6607143 48.2738095,85.5654762 C48.3928571,86.7857143 48.8988095,87.4107143 50.2678571,87.2321429 C52.1130952,86.9642857 54.0178571,86.9345238 55.8630952,86.6369048 C65.3571429,85.0297619 73.1845238,80.4761905 79.077381,72.9166667 C86.0714286,63.9285714 88.6011905,53.75 86.3988095,42.5 C84.6428571,33.5416667 80.1785714,26.1904762 73.0357143,20.5059524 C64.6130952,13.8095238 54.9702381,11.1309524 44.375,12.6488095 C35.1190476,13.9285714 27.3214286,18.1845238 21.2202381,25.3571429 C13.8392857,34.047619 11.0416667,44.1369048 12.5892857,55.3571429 C13.4821429,61.875 16.1904762,68.0059524 20.3571429,73.0952381 C21.6666667,74.7321429 22.8869048,76.4880952 25.0297619,77.7380952 C24.4940476,73.8690476 24.2559524,70.2380952 23.3630952,66.7261905 C22.7083333,64.2261905 22.4702381,61.6369048 22.6785714,59.077381 C22.9761905,55.7738095 23.5714286,52.5297619 24.1964286,49.2857143 C24.9404762,45.3571429 26.1309524,41.5178571 26.25,37.4702381 C26.3392857,36.3690476 26.7261905,35.327381 27.3511905,34.4345238 C28.6904762,32.3809524 30.6547619,31.1904762 32.7380952,30.1190476 C36.8154762,28.0654762 41.1309524,26.5178571 44.9702381,24.077381 C48.6011905,21.7559524 52.202381,21.7857143 55.922619,23.7202381 C57.9166667,24.7321429 59.9404762,25.6845238 61.9642857,26.6071429 C65.9821429,28.452381 69.9404762,30.3571429 74.1071429,31.875 C76.8154762,32.8571429 77.797619,36.9345238 75.297619,38.6309524 C75.0595238,38.7797619 74.8511905,39.047619 74.7619048,39.3154762 C73.9285714,42.3511905 71.7857143,43.75 68.8095238,44.047619 Z M61.1011905,42.2619048 C57.9464286,41.2797619 54.6130952,40.8928571 51.3095238,41.1309524 C49.2857143,41.25 47.2916667,41.7857143 45.5059524,42.7678571 C45.1488095,42.9761905 44.672619,43.0952381 44.7916667,43.7202381 C44.9702381,44.702381 46.6369048,46.3988095 47.7083333,46.4583333 C49.1369048,46.547619 50.5654762,46.5178571 51.9940476,46.3095238 C55.3869048,45.7142857 57.6488095,42.7380952 61.1011905,42.2619048 Z" id="Shape" fill="#6F88BE"></path>
                <polygon id="Shape" fill="#447391" points="28.0559524 84.5238095 28.2559524 84.8238095 28.0059524 84.6238095 28.0559524 84.5238095"></polygon>
                <path d="M68.8095238,44.047619 C71.7857143,43.75 73.9285714,42.3511905 74.7619048,39.3154762 C74.8511905,39.047619 75.0595238,38.8095238 75.297619,38.6309524 C77.797619,36.9345238 76.8154762,32.8571429 74.1071429,31.875 C69.9702381,30.3571429 66.0119048,28.422619 61.9940476,26.577381 C59.9702381,25.6547619 57.9464286,24.702381 55.952381,23.6904762 C52.202381,21.7559524 48.6309524,21.7261905 45,24.047619 C41.1607143,26.4880952 36.8452381,28.0654762 32.7678571,30.0892857 C30.6845238,31.1309524 28.6904762,32.3511905 27.3809524,34.4047619 C26.7559524,35.297619 26.3690476,36.3392857 26.2797619,37.4404762 C26.1309524,41.4880952 24.9702381,45.327381 24.2261905,49.2559524 C23.6011905,52.5 23.0059524,55.7738095 22.7083333,59.047619 C22.5,61.6071429 22.7380952,64.1964286 23.3928571,66.6964286 C24.2857143,70.2380952 24.5238095,73.8690476 25.0595238,77.7083333 C22.9166667,76.4880952 21.6666667,74.702381 20.3571429,73.0952381 C16.1904762,68.0059524 13.4821429,61.875 12.5892857,55.3571429 C11.0416667,44.1369048 13.8392857,34.047619 21.2202381,25.3571429 C27.3214286,18.1845238 35.1488095,13.9285714 44.375,12.6488095 C54.9702381,11.1607143 64.6130952,13.8095238 73.0357143,20.5059524 C80.1488095,26.1904762 84.6428571,33.5416667 86.3988095,42.5 C88.6011905,53.75 86.0714286,63.9285714 79.077381,72.9166667 C73.1845238,80.5059524 65.3571429,85.0595238 55.8630952,86.6369048 C54.0178571,86.9345238 52.1428571,86.9940476 50.2678571,87.2321429 C48.8988095,87.4404762 48.422619,86.7857143 48.2738095,85.5654762 C48.0654762,83.6607143 47.797619,81.7261905 47.6785714,79.8214286 C47.5,76.5178571 47.5297619,73.1845238 47.3214286,69.8809524 C47.2321429,68.2142857 47.7678571,66.9642857 49.077381,66.0416667 C55.6845238,61.3690476 60.625,54.7619048 67.6488095,50.5952381 C70.2380952,49.047619 70.3869048,47.5595238 68.9880952,44.8214286 C68.8988095,44.5833333 68.8095238,44.375 68.75,44.1369048 L68.8095238,44.047619 Z" id="Shape" fill="#A2C7F4"></path>
                <path d="M61.0714286,42.2321429 C57.6488095,42.7380952 55.3571429,45.6845238 51.9345238,46.2797619 C50.5059524,46.4880952 49.077381,46.547619 47.6488095,46.4285714 C46.577381,46.3690476 44.9107143,44.672619 44.7321429,43.6904762 C44.6130952,43.0654762 45.0892857,42.9464286 45.4464286,42.7380952 C47.2321429,41.7559524 49.2261905,41.2202381 51.25,41.1011905 C54.6130952,40.8630952 57.9166667,41.25 61.0714286,42.2321429 Z M68.7202381,44.1071429 L68.3630952,43.9285714 C68.3928571,43.8988095 68.422619,43.8392857 68.452381,43.8392857 C68.5714286,43.8988095 68.6904762,43.9583333 68.7797619,44.0178571 L68.7202381,44.1071429 Z" id="Shape" fill="#AAC7F0"></path>
            </g>
        </g>
    </g>
</svg>