<?xml version="1.0" encoding="UTF-8"?>
<svg width="100px" height="101px" viewBox="0 0 100 101" version="1.1" xmlns="http://www.w3.org/2000/svg" xmlns:xlink="http://www.w3.org/1999/xlink">
    <!-- Generator: Sketch 51.3 (57544) - http://www.bohemiancoding.com/sketch -->
    <title>paper</title>
    <desc>Created with Sketch.</desc>
    <defs></defs>
    <g id="Page-1" stroke="none" stroke-width="1" fill="none" fill-rule="evenodd">
        <g id="Player-vs-Bot" transform="translate(-78.000000, -517.000000)" fill-rule="nonzero">
            <g id="paper" transform="translate(78.000000, 517.000000)">
                <path d="M19.8809524,90 C-2.05357143,73.3630952 -6.57738095,42.2916667 10.0297619,20.1785714 C26.6666667,-1.9047619 57.9166667,-6.25 79.7619048,10.2678571 C101.815476,26.9345238 106.279762,58.1547619 89.7321429,80.1190476 C73.0357143,102.202381 41.7857143,106.607143 19.8809524,90 Z M13.2142857,22.2321429 C-2.38095238,42.3809524 1.66666667,71.875 22.4702381,87.1428571 C42.3214286,101.815476 70.922619,98.0654762 86.2202381,77.9464286 C101.339286,58.1547619 98.2738095,28.6309524 76.7261905,12.9166667 C56.1011905,-2.14285714 27.797619,2.82738095 13.2142857,22.2321429 Z" id="Shape" fill="#6F88BE"></path>
                <path d="M13.2142857,22.2321429 C27.797619,2.85714286 56.1011905,-2.11309524 76.7261905,13.0059524 C98.3035714,28.75 101.339286,58.2142857 86.2202381,78.0059524 C70.922619,98.0654762 42.2916667,101.845238 22.4702381,87.202381 C1.66666667,71.875 -2.38095238,42.4107143 13.2142857,22.2321429 Z M39.0178571,59.047619 C39.9702381,54.3452381 40.6845238,49.702381 40.4166667,45.0297619 C40.1785714,41.7559524 40.3571429,38.4821429 41.0119048,35.2678571 C41.2797619,33.8988095 41.8154762,32.5892857 42.5297619,31.4583333 C43.3630952,30.1190476 44.672619,30.2083333 45.952381,30.327381 C47.2321429,30.4464286 47.2916667,31.3988095 47.4404762,32.3511905 C47.827381,35.5952381 47.4702381,38.7797619 47.4404762,41.9642857 C47.3809524,44.8511905 47.4107143,47.7083333 47.4107143,50.5654762 C47.3511905,51.0714286 47.202381,51.9047619 48.0952381,51.8452381 C48.8392857,51.7559524 48.7202381,51.0714286 48.7202381,50.4464286 C48.6011905,46.6071429 48.6607143,42.7678571 48.8095238,38.8690476 C48.8988095,36.3095238 49.0178571,33.7202381 48.6011905,31.1607143 C48.3630952,29.5833333 49.4940476,28.6904762 50.5357143,27.8869048 C51.5178571,27.0833333 52.8869048,26.8452381 54.077381,27.3809524 C55.0297619,27.7678571 55.0297619,28.5714286 54.9107143,29.4940476 C53.7797619,36.875 53.5119048,44.3154762 53.8392857,51.7559524 C53.8690476,53.1547619 53.8690476,53.1547619 55.2083333,52.9761905 C55.1785714,49.8511905 55.0892857,46.6964286 55.0892857,43.5416667 C55.0892857,39.2857143 55.625,35.0595238 56.1309524,30.8333333 C56.2202381,29.9107143 56.6071429,29.702381 57.4702381,29.7321429 C59.5238095,29.8214286 60.297619,30.6547619 60.1190476,32.7083333 C59.5238095,39.3452381 59.4047619,45.952381 60.1190476,52.5892857 C60.2678571,53.8690476 60.7142857,54.3452381 61.9642857,54.1369048 C61.6964286,53.7202381 61.5178571,53.2738095 61.5178571,52.7380952 C60.8630952,46.7261905 60.8630952,40.6547619 61.3392857,34.672619 C61.3988095,34.2559524 61.1904762,33.6607143 61.8154762,33.5416667 C62.3809524,33.422619 62.9464286,33.6309524 63.2440476,34.077381 C64.077381,34.9404762 64.2857143,36.1011905 64.4345238,37.2321429 C66.3690476,47.5 66.6369048,57.7083333 63.7797619,67.827381 C62.5892857,71.8452381 61.6964286,75.9821429 61.0119048,80.1488095 C60.5357143,83.0952381 60.8035714,86.0416667 61.3095238,89.0178571 C61.4583333,90.0297619 61.875,90.0892857 62.7083333,89.7916667 C70,87.3511905 76.3095238,83.3630952 81.1904762,77.3214286 C92.0535714,63.9880952 94.375,49.047619 87.3511905,33.3630952 C75.4464286,7.08333333 41.4583333,0.922619048 20.8333333,20.8333333 C4.94047619,36.1607143 4.16666667,62.0238095 19.1369048,78.1845238 C24.6130952,84.1369048 31.2202381,88.2142857 39.0178571,90.297619 C39.5238095,90.5059524 40.0297619,90.5654762 40.8035714,90.7440476 C40.0297619,83.5119048 40.4166667,76.1309524 34.5833333,70.5654762 C32.9464286,68.9285714 32.1428571,66.9047619 31.8154762,64.6130952 C31.1607143,59.8809524 30.4761905,55.2678571 29.8511905,50.5654762 C29.8214286,50.0892857 29.702381,49.672619 29.6428571,49.2261905 C29.4940476,48.2142857 28.6904762,47.1130952 30.2678571,46.4583333 C31.7857143,45.8630952 33.5714286,46.25 34.4345238,47.4404762 C35.1190476,48.422619 35.6845238,49.4940476 36.0119048,50.6547619 C37.0238095,53.4821429 38.0654762,56.25 39.0178571,59.047619 Z" id="Shape" fill="#FCFCFD"></path>
                <path d="M39.047619,59.0178571 C38.0654762,56.25 37.0535714,53.3928571 36.1011905,50.625 C35.7440476,49.4642857 35.1785714,48.452381 34.5238095,47.4107143 C33.6309524,46.1904762 31.8452381,45.8333333 30.3571429,46.4285714 C28.7797619,47.0535714 29.5238095,48.2142857 29.7321429,49.1964286 C29.7619048,49.672619 29.9107143,50.0892857 29.9404762,50.5357143 C30.5952381,55.2678571 31.2797619,59.8809524 31.9047619,64.5833333 C32.202381,66.875 32.9761905,68.9285714 34.672619,70.5357143 C40.5059524,76.0416667 40.0892857,83.4821429 40.922619,90.7142857 C40.1785714,90.5357143 39.672619,90.4166667 39.1369048,90.2678571 C31.3392857,88.1547619 24.702381,84.077381 19.2559524,78.1547619 C4.22619048,61.9940476 5,36.1309524 20.8630952,20.8333333 C41.5178571,0.922619048 75.4464286,7.05357143 87.2321429,33.2738095 C94.2857143,48.8988095 91.9642857,63.8690476 81.0714286,77.2321429 C76.2202381,83.1845238 69.9107143,87.202381 62.5892857,89.702381 C61.7559524,90 61.3690476,89.9404762 61.1904762,88.9285714 C60.6845238,85.952381 60.4464286,83.0357143 60.8928571,80.0595238 C61.577381,75.8630952 62.4702381,71.7261905 63.6904762,67.7380952 C66.547619,57.5892857 66.25,47.3809524 64.3452381,37.1428571 C64.1369048,36.0416667 63.9285714,34.8809524 63.1547619,33.9880952 C62.8571429,33.5119048 62.202381,33.3333333 61.7261905,33.452381 C61.1309524,33.6011905 61.3392857,34.1666667 61.25,34.5833333 C60.7142857,40.5952381 60.7440476,46.6666667 61.4285714,52.6488095 C61.4285714,53.1547619 61.6071429,53.6011905 61.875,54.047619 C60.625,54.2261905 60.1488095,53.7797619 60.0297619,52.5 C59.2857143,45.8630952 59.4345238,39.2559524 60.0297619,32.6190476 C60.1785714,30.5654762 59.4642857,29.7619048 57.3809524,29.6428571 C56.5178571,29.6130952 56.1309524,29.8511905 56.0416667,30.7440476 C55.5059524,34.9702381 55,39.1964286 55,43.452381 C55.0297619,46.577381 55.1190476,49.7321429 55.1190476,52.8869048 C53.7797619,53.0357143 53.8095238,53.0654762 53.75,51.6666667 C53.422619,44.1964286 53.7202381,36.8154762 54.8214286,29.4047619 C54.9702381,28.5119048 55.0297619,27.7083333 53.9880952,27.2916667 C52.8571429,26.7559524 51.4880952,26.9940476 50.4464286,27.797619 C49.4047619,28.6309524 48.2142857,29.5238095 48.5119048,31.0714286 C48.9285714,33.6607143 48.8095238,36.2202381 48.7202381,38.7797619 C48.5714286,42.6190476 48.4821429,46.4583333 48.6309524,50.3571429 C48.6309524,50.9821429 48.7797619,51.7261905 48.0059524,51.7559524 C47.1428571,51.8154762 47.2916667,50.952381 47.3214286,50.4464286 C47.3214286,47.5595238 47.2916667,44.702381 47.3511905,41.8452381 C47.3809524,38.6309524 47.7380952,35.4166667 47.3511905,32.2321429 C47.2321429,31.2797619 47.202381,30.327381 45.8630952,30.2083333 C44.5535714,30.0892857 43.2738095,30 42.4404762,31.3392857 C41.6964286,32.5595238 41.2202381,33.8392857 40.922619,35.1488095 C40.297619,38.3630952 40.0892857,41.6666667 40.327381,44.9107143 C40.7142857,49.7619048 39.9702381,54.3452381 39.047619,59.0178571 Z M37.3809524,46.7559524 C37.4404762,44.7916667 37.4107143,42.797619 37.4702381,40.8928571 C37.7083333,37.4702381 38.2440476,34.047619 39.9107143,30.8928571 C41.1309524,28.4821429 43.0654762,27.5595238 45.5952381,27.7380952 C46.6666667,27.797619 47.3511905,27.6785714 48.0952381,26.7261905 C50.2083333,24.0178571 54.2857143,23.9285714 56.6964286,26.4880952 C57.0238095,26.9345238 57.5595238,27.1428571 58.0654762,27.2321429 C60.0892857,27.5297619 61.8154762,28.3928571 62.5595238,30.5357143 C62.6190476,30.7738095 62.7678571,30.9821429 62.9761905,31.1309524 C65.5952381,32.1130952 66.3095238,34.375 66.7559524,36.7559524 C67.827381,42.797619 68.5119048,48.9285714 68.3928571,55.0892857 C68.2738095,59.1964286 67.202381,63.1845238 66.3392857,67.2321429 C65.2083333,72.5892857 63.3630952,77.827381 63.1547619,83.3928571 C63.125,83.7202381 63.1547619,84.077381 63.125,84.4047619 C63.1547619,85.327381 63.3928571,85.6547619 64.4047619,85.2380952 C68.3928571,83.6011905 72.0535714,81.2202381 75.1488095,78.2440476 C83.0952381,70.6547619 87.0535714,61.2797619 86.9940476,50.297619 C86.9047619,41.0416667 83.8095238,32.7678571 77.5297619,25.952381 C68.0952381,15.6845238 56.3690476,11.7559524 42.6488095,14.047619 C34.6428571,15.327381 27.8869048,19.1666667 22.3809524,25.0892857 C15.625,32.3214286 12.172619,40.8630952 12.1428571,50.7142857 C12.1428571,61.0119048 15.8035714,69.9404762 23.1547619,77.2619048 C26.7559524,80.8630952 31.1011905,83.7202381 35.8035714,85.6845238 C36.3690476,85.922619 37.0833333,86.4880952 37.5892857,86.0714286 C38.125,85.7440476 37.6488095,84.9702381 37.6190476,84.4047619 C37.4404762,82.9464286 37.202381,81.4285714 36.9642857,79.9702381 C36.5178571,77.0535714 34.9702381,74.702381 32.9761905,72.6488095 C30.6845238,70.297619 29.5535714,67.3214286 29.1666667,64.1369048 C28.6011905,59.4940476 27.9166667,54.9107143 27.3214286,50.2678571 C27.172619,49.047619 26.577381,47.9166667 27.0535714,46.6071429 C28.0952381,43.8690476 32.2321429,42.8571429 34.9702381,44.5833333 C35.922619,45.1785714 36.5178571,46.1309524 37.3511905,46.8154762 L37.4404762,46.9940476 L37.3809524,46.7559524 Z" id="Shape" fill="#6F88BE"></path>
                <path d="M37.2916667,46.7857143 C36.4583333,46.0714286 35.8928571,45.1190476 34.9107143,44.5535714 C32.202381,42.797619 28.0357143,43.8690476 26.9940476,46.577381 C26.4880952,47.827381 27.1130952,49.0178571 27.2619048,50.2380952 C27.8869048,54.8809524 28.5416667,59.4642857 29.1071429,64.1071429 C29.5238095,67.3511905 30.6845238,70.297619 32.9166667,72.6190476 C34.9404762,74.702381 36.3690476,77.0535714 36.9047619,79.9404762 C37.1428571,81.4285714 37.3809524,82.8869048 37.5595238,84.375 C37.6190476,84.9404762 38.0357143,85.7142857 37.5297619,86.0416667 C36.9345238,86.3988095 36.2797619,85.8928571 35.7440476,85.6547619 C30.9821429,83.6904762 26.7261905,80.8630952 23.0952381,77.2321429 C15.7142857,69.9107143 12.0535714,61.0416667 12.0833333,50.6845238 C12.0833333,40.8333333 15.5357143,32.2916667 22.3511905,25.0595238 C27.8869048,19.1071429 34.6130952,15.3571429 42.5595238,13.9880952 C56.2797619,11.6964286 68.0059524,15.625 77.4404762,25.8928571 C83.7202381,32.7083333 86.8452381,41.0119048 86.9047619,50.2380952 C86.9940476,61.2202381 83.0357143,70.5952381 75.0595238,78.1845238 C71.9047619,81.1309524 68.2738095,83.5119048 64.3154762,85.1785714 C63.3035714,85.5952381 63.0357143,85.2380952 63.0357143,84.3452381 C63.0654762,84.0178571 63.0654762,83.6904762 63.0654762,83.3333333 C63.2440476,77.797619 65.1488095,72.5297619 66.25,67.172619 C67.0833333,63.1547619 68.1845238,59.1369048 68.3035714,55.0297619 C68.422619,48.8988095 67.7380952,42.7678571 66.6666667,36.6964286 C66.25,34.2559524 65.5654762,32.0535714 62.8869048,31.0714286 C62.6785714,30.952381 62.5297619,30.7440476 62.4702381,30.4761905 C61.6964286,28.3630952 59.9702381,27.5 57.9761905,27.172619 C57.4702381,27.0535714 56.9642857,26.8452381 56.6071429,26.4285714 C54.1964286,23.8988095 50.1488095,23.9880952 48.0059524,26.6666667 C47.2916667,27.6190476 46.6071429,27.7380952 45.5059524,27.6785714 C42.9761905,27.4702381 41.0416667,28.3630952 39.8214286,30.8333333 C38.1547619,33.9880952 37.5892857,37.3809524 37.3809524,40.8333333 C37.2619048,42.797619 37.2916667,44.7619048 37.2916667,46.7261905 L37.2916667,46.7857143 Z" id="Shape" fill="#A2C7F4"></path>
                <polygon id="Shape" fill="#77AFBF" points="37.4619048 46.7559524 37.4119048 47.1059524 37.2619048 46.8059524"></polygon>
            </g>
        </g>
    </g>
</svg>