<?xml version="1.0" encoding="UTF-8"?>
<svg width="22px" height="22px" viewBox="0 0 22 22" version="1.1" xmlns="http://www.w3.org/2000/svg" xmlns:xlink="http://www.w3.org/1999/xlink">
    <!-- Generator: Sketch 51.3 (57544) - http://www.bohemiancoding.com/sketch -->
    <title>remove11</title>
    <desc>Created with Sketch.</desc>
    <defs></defs>
    <g id="Page-1" stroke="none" stroke-width="1" fill="none" fill-rule="evenodd">
        <g id="Instructions" transform="translate(-322.000000, -26.000000)" fill="#AAC7F0">
            <g id="remove11" transform="translate(322.000000, 26.000000)">
                <path d="M15.6166667,11 L20.606875,6.00979167 C20.92375,5.693125 21.0820833,5.30833333 21.0820833,4.855625 C21.0820833,4.40291667 20.9235417,4.01833333 20.606875,3.70145833 L18.2985417,1.39291667 C17.9816667,1.07604167 17.5970833,0.917708333 17.1445833,0.917708333 C16.6916667,0.917708333 16.3070833,1.07604167 15.9902083,1.39291667 L11,6.383125 L6.00979167,1.39291667 C5.693125,1.07604167 5.30833333,0.917708333 4.855625,0.917708333 C4.403125,0.917708333 4.01833333,1.07604167 3.70145833,1.39291667 L1.39291667,3.70145833 C1.07625,4.018125 0.917708333,4.40291667 0.917708333,4.855625 C0.917708333,5.30833333 1.07604167,5.69291667 1.39291667,6.00979167 L6.383125,11 L1.39291667,15.9902083 C1.07625,16.3070833 0.917708333,16.6916667 0.917708333,17.144375 C0.917708333,17.5970833 1.07604167,17.9816667 1.39291667,18.2985417 L3.70145833,20.606875 C4.01833333,20.92375 4.403125,21.0820833 4.855625,21.0820833 C5.30833333,21.0820833 5.69291667,20.9235417 6.00979167,20.606875 L11,15.6166667 L15.9904167,20.606875 C16.3072917,20.92375 16.6916667,21.0820833 17.1447917,21.0820833 C17.5972917,21.0820833 17.9820833,20.9235417 18.29875,20.606875 L20.606875,18.2985417 C20.92375,17.981875 21.0820833,17.5970833 21.0820833,17.144375 C21.0820833,16.6916667 20.92375,16.3070833 20.606875,15.9902083 L15.6166667,11 L15.6166667,11 Z" id="Shape"></path>
            </g>
        </g>
    </g>
</svg>