<?xml version="1.0" encoding="UTF-8"?>
<svg width="100px" height="100px" viewBox="0 0 100 100" version="1.1" xmlns="http://www.w3.org/2000/svg" xmlns:xlink="http://www.w3.org/1999/xlink">
    <!-- Generator: Sketch 51.3 (57544) - http://www.bohemiancoding.com/sketch -->
    <title>rock</title>
    <desc>Created with Sketch.</desc>
    <defs></defs>
    <g id="Page-1" stroke="none" stroke-width="1" fill="none" fill-rule="evenodd">
        <g id="Player-vs-Bot" transform="translate(-19.000000, -400.000000)" fill-rule="nonzero">
            <g id="rock" transform="translate(19.000000, 400.000000)">
                <path d="M90.1190476,79.3154762 C73.8690476,101.577381 42.6785714,106.39881 20.4166667,90.1190476 C-1.51785714,73.9880952 -6.75595238,42.8571429 9.67261905,20.4166667 C25.922619,-1.78571429 57.0535714,-6.63690476 79.2559524,9.61309524 C79.3154762,9.64285714 79.3154762,9.67261905 79.375,9.70238095 C101.547619,25.922619 106.339286,57.0833333 90.1190476,79.3154762 Z M86.6666667,76.9345238 C101.934524,55.5357143 96.6071429,27.3809524 76.7559524,12.7678571 C56.4583333,-2.17261905 27.7083333,2.14285714 12.827381,21.9940476 C-2.32142857,42.2321429 1.07142857,71.3988095 22.3809524,86.9345238 C42.8869048,101.904762 71.2202381,97.5892857 86.6666667,76.9345238 Z" id="Shape" fill="#6F88BE"></path>
                <path d="M86.6666667,76.9345238 C71.2202381,97.5892857 42.9166667,101.875 22.4107143,86.9642857 C1.13095238,71.3988095 -2.29166667,42.2321429 12.8571429,21.9940476 C27.7083333,2.14285714 56.4880952,-2.17261905 76.7559524,12.7678571 C96.6071429,27.3511905 101.904762,55.5357143 86.6666667,76.9345238 Z M35.5059524,88.5119048 C35.5654762,82.172619 35.5952381,75.9821429 35.625,69.7619048 C35.6547619,69.1666667 35.3869048,68.6011905 34.9107143,68.2440476 C33.8095238,67.3809524 32.827381,66.4285714 31.7559524,65.5357143 C28.6309524,63.0357143 26.2797619,59.9702381 25.1190476,56.1011905 C24.7321429,54.7916667 24.5833333,53.5119048 25,52.1428571 C26.0119048,48.9285714 26.9642857,45.7142857 28.0357143,42.5 C28.452381,41.2797619 28.9583333,40.1190476 29.4940476,38.9285714 C29.702381,38.422619 30.1785714,38.1547619 30.7142857,38.422619 C31.1904762,38.6607143 30.922619,39.1071429 30.8035714,39.4642857 C30.1190476,41.4285714 29.702381,43.4821429 29.672619,45.5654762 C29.672619,47.8571429 30.2678571,49.8511905 31.9345238,51.4880952 C33.0654762,52.6190476 34.3452381,53.5416667 35.8035714,54.2261905 C36.0416667,54.3452381 36.8452381,54.5535714 36.25,54.8809524 C35.6547619,55.2083333 35.6547619,55.2380952 36.1904762,55.4761905 C38.1845238,56.4583333 41.1904762,55.9821429 42.797619,54.5238095 C42.4404762,54.1666667 41.547619,54.9107143 41.4880952,54.077381 C41.3988095,52.5297619 41.0119048,51.0416667 40.7142857,49.1369048 C41.547619,49.9107143 41.9642857,50.5059524 42.5297619,50.8630952 C43.0952381,51.25 43.5416667,52.3809524 44.2559524,51.6666667 C44.7916667,51.0714286 43.75,50.5357143 43.3035714,50.1488095 C41.1011905,48.2440476 39.047619,46.2797619 38.5714286,43.1845238 C38.5119048,42.797619 38.3928571,42.5297619 37.8869048,42.6785714 C37.4107143,42.827381 37.4702381,43.1547619 37.5,43.5119048 C37.6785714,44.702381 38.0654762,45.8035714 38.452381,46.9345238 C38.6904762,47.5892857 38.6904762,48.0952381 37.8869048,48.3630952 C37.6190476,48.4821429 37.0833333,48.4821429 37.3511905,48.9880952 C37.5,49.3452381 37.8571429,49.4940476 38.2142857,49.4047619 C39.5833333,48.8392857 39.672619,49.8511905 39.8511905,50.7142857 C40.0297619,51.577381 40.1488095,52.3809524 40.327381,53.1845238 C40.5357143,54.1964286 40.0892857,54.4940476 39.1964286,54.2261905 C38.3035714,53.9880952 37.3214286,53.8095238 36.5178571,53.422619 C31.7857143,51.0714286 30.0595238,48.5714286 30.8928571,43.3928571 C31.2202381,41.3690476 31.8154762,39.4047619 32.6785714,37.5892857 C34.375,33.8392857 37.9464286,32.8571429 41.2202381,35.2678571 C44.672619,37.8571429 47.6488095,40.9821429 50.6547619,44.077381 C50.952381,44.375 51.1607143,45.1488095 51.7857143,44.6130952 C52.4702381,43.9880952 51.6964286,43.6904762 51.3690476,43.3035714 C48.3928571,40.1190476 45.3571429,36.9940476 41.7857143,34.4345238 C40.922619,33.8095238 41.0416667,33.3035714 41.6666667,32.6488095 C43.2142857,31.1309524 44.9404762,30.9821429 46.7857143,32.202381 C49.2857143,33.8690476 51.3095238,36.0416667 53.2738095,38.2738095 C54.9404762,40.1785714 56.4880952,42.172619 58.0952381,44.077381 C58.3928571,44.4047619 58.5416667,45.3571429 59.2559524,44.7321429 C59.9404762,44.1666667 58.9880952,43.8392857 58.8690476,43.3928571 C58.8690476,43.3630952 58.8095238,43.3035714 58.7797619,43.2738095 C55.8333333,39.4940476 52.7678571,35.7738095 49.1071429,32.6785714 C48.0952381,31.8452381 48.5416667,31.4583333 49.4047619,31.1904762 C51.1011905,30.7440476 52.7678571,30.5952381 54.3154762,31.8154762 C56.4285714,33.5416667 58.3928571,35.4166667 60.2083333,37.4404762 C62.172619,39.5833333 64.077381,41.8154762 66.0119048,44.0178571 C66.25,44.2559524 66.4285714,44.7916667 66.9345238,44.375 C67.4107143,43.9880952 67.0238095,43.6904762 66.8154762,43.3928571 C66.6666667,43.2142857 66.4880952,43.0059524 66.3392857,42.827381 C63.5714286,39.4642857 60.625,36.25 57.5297619,33.1845238 C56.7559524,32.4404762 56.875,31.6964286 57.8869048,31.2797619 C58.6904762,30.952381 59.375,31.1011905 60.0892857,31.6666667 C63.75,34.6130952 67.172619,37.8571429 70.327381,41.3690476 C72.4404762,43.6904762 73.0059524,46.2797619 72.1428571,49.2261905 C69.7619048,57.2321429 65.9821429,64.4345238 60.4464286,70.7142857 C59.8809524,71.2797619 59.6428571,72.0238095 59.702381,72.827381 C60.0595238,78.0357143 60.4464286,83.1547619 60.7440476,88.3035714 C60.8035714,89.5833333 61.2797619,89.4940476 62.172619,89.1964286 C73.3630952,85.5059524 81.7559524,78.4821429 86.9047619,67.8571429 C97.2619048,46.4583333 87.5,21.9642857 67.4702381,12.4107143 C41.9940476,0.178571429 11.25,17.3511905 8.63095238,45.5654762 C7.32142857,59.4940476 12.0535714,71.3095238 22.3511905,80.7738095 C26.1607143,84.2261905 30.625,86.8452381 35.5059524,88.5119048 Z" id="Shape" fill="#FCFCFD"></path>
                <path d="M35.6547619,88.5714286 C30.7738095,86.9345238 26.3095238,84.3452381 22.5,80.8630952 C12.172619,71.4583333 7.41071429,59.672619 8.63095238,45.7142857 C11.1309524,17.5 41.8154762,0.178571429 67.3214286,12.2916667 C87.3511905,21.7559524 97.2321429,46.25 86.9642857,67.6785714 C81.875,78.3333333 73.4821429,85.327381 62.3214286,89.1369048 C61.3988095,89.4345238 60.9821429,89.5238095 60.8928571,88.2440476 C60.5654762,83.0952381 60.1785714,77.9464286 59.7619048,72.797619 C59.672619,72.0238095 59.9702381,71.25 60.5059524,70.6845238 C66.0119048,64.375 69.7916667,57.1428571 72.1130952,49.1369048 C72.9761905,46.1904762 72.3511905,43.6309524 70.2678571,41.2797619 C67.1130952,37.7678571 63.6607143,34.5535714 59.9702381,31.6369048 C59.2559524,31.1011905 58.5714286,30.922619 57.7678571,31.25 C56.7559524,31.6964286 56.6369048,32.3809524 57.4107143,33.1547619 C60.5357143,36.2202381 63.452381,39.4047619 66.25,42.7678571 C66.3988095,42.9464286 66.577381,43.1547619 66.7261905,43.3333333 C66.9345238,43.6309524 67.3214286,43.9285714 66.875,44.3154762 C66.3690476,44.7619048 66.1904762,44.2261905 65.952381,43.9880952 C64.0178571,41.8154762 62.1130952,39.5833333 60.1190476,37.4404762 C58.3035714,35.4166667 56.3392857,33.5416667 54.1964286,31.8154762 C52.6190476,30.5952381 50.9821429,30.7440476 49.2857143,31.1904762 C48.422619,31.3988095 48.0059524,31.8452381 48.9880952,32.6785714 C52.6785714,35.8035714 55.7440476,39.4940476 58.7202381,43.2440476 C58.7797619,43.2738095 58.7797619,43.3333333 58.8095238,43.3630952 C58.9285714,43.8095238 59.8511905,44.1666667 59.1964286,44.702381 C58.452381,45.297619 58.3035714,44.375 58.0357143,44.047619 C56.3988095,42.172619 54.8214286,40.1488095 53.1547619,38.2440476 C51.1904762,36.0119048 49.1369048,33.8690476 46.6369048,32.202381 C44.8214286,31.0119048 43.0654762,31.1309524 41.5178571,32.6488095 C40.8630952,33.2738095 40.7142857,33.8095238 41.6369048,34.4345238 C45.2083333,36.9642857 48.2440476,40.1190476 51.25,43.2738095 C51.577381,43.6309524 52.3511905,43.9583333 51.6666667,44.5833333 C51.0416667,45.1190476 50.8333333,44.3452381 50.5357143,44.047619 C47.5297619,40.952381 44.5535714,37.8571429 41.0714286,35.297619 C37.797619,32.8571429 34.2261905,33.8988095 32.5297619,37.6488095 C31.6964286,39.4940476 31.1011905,41.4583333 30.7738095,43.4821429 C29.9702381,48.6607143 31.7261905,51.1607143 36.4285714,53.4821429 C37.2619048,53.8988095 38.2142857,54.047619 39.1071429,54.2857143 C40,54.5238095 40.4761905,54.2261905 40.2380952,53.2440476 C40.0595238,52.4107143 39.9404762,51.577381 39.7619048,50.7738095 C39.5833333,49.9404762 39.4940476,48.8988095 38.125,49.4940476 C37.7678571,49.5833333 37.3809524,49.4345238 37.2619048,49.077381 C37.0238095,48.5416667 37.5297619,48.5416667 37.797619,48.422619 C38.5714286,48.1547619 38.5714286,47.6488095 38.3630952,46.9940476 C37.9761905,45.8630952 37.5595238,44.7619048 37.3809524,43.5714286 C37.3214286,43.1845238 37.2916667,42.8869048 37.7678571,42.7380952 C38.2440476,42.5892857 38.3928571,42.8571429 38.452381,43.2142857 C38.9583333,46.2797619 40.9821429,48.2738095 43.2142857,50.1488095 C43.6607143,50.5357143 44.702381,51.0714286 44.1666667,51.6666667 C43.4821429,52.3809524 42.9761905,51.2202381 42.4404762,50.8630952 C41.9047619,50.5059524 41.4285714,49.9404762 40.5952381,49.1369048 C40.8928571,51.0416667 41.2797619,52.5297619 41.3988095,54.077381 C41.4583333,54.9107143 42.3214286,54.1666667 42.7083333,54.4940476 C41.1011905,55.9821429 38.0654762,56.4285714 36.1011905,55.4761905 C35.5952381,55.2083333 35.5357143,55.2380952 36.1607143,54.8809524 C36.7559524,54.5535714 35.952381,54.3452381 35.7142857,54.2261905 C34.2857143,53.5714286 32.9761905,52.6190476 31.8452381,51.4880952 C30.1488095,49.8511905 29.5535714,47.8571429 29.5535714,45.5654762 C29.6130952,43.4821429 29.9702381,41.4285714 30.6547619,39.4642857 C30.7738095,39.1071429 31.0416667,38.6904762 30.5654762,38.422619 C30.0297619,38.1547619 29.5535714,38.422619 29.3452381,38.9285714 C28.8392857,40.0892857 28.3035714,41.2797619 27.8869048,42.5 C26.8452381,45.7142857 25.8928571,48.9285714 24.9107143,52.172619 C24.4940476,53.5119048 24.6428571,54.8214286 25.0595238,56.1309524 C26.2202381,60.0297619 28.6011905,63.0654762 31.7261905,65.5357143 C32.797619,66.3988095 33.8392857,67.3511905 34.8809524,68.2142857 C35.3571429,68.5714286 35.6547619,69.1369048 35.625,69.7321429 C35.6845238,76.0119048 35.6845238,82.202381 35.6547619,88.5714286 Z M19.7916667,27.6488095 C18.3630952,29.4642857 17.202381,31.3988095 16.2202381,33.452381 C12.6785714,40.9821429 11.7261905,48.8392857 13.3630952,57.0238095 C14.3154762,61.7559524 16.1904762,66.2202381 18.8392857,70.2380952 C22.3214286,75.5952381 27.0238095,79.5833333 32.5595238,82.6488095 C33.7202381,83.3035714 33.6607143,82.5892857 33.6607143,81.8452381 C33.6607143,78.2738095 33.6011905,74.702381 33.6904762,71.1309524 C33.75,70.2380952 33.3333333,69.375 32.6785714,68.7797619 C31.8452381,68.0059524 31.0119048,67.2321429 30.1190476,66.547619 C27.2321429,64.4345238 25.2678571,61.6369048 23.8988095,58.3928571 C23.0952381,56.5178571 22.3809524,54.4940476 22.8869048,52.4702381 C24.1369048,47.6488095 25.5059524,42.827381 27.4107143,38.1845238 C27.9166667,36.9642857 28.7202381,35.922619 30.2678571,36.0119048 C30.922619,36.0416667 31.2797619,35.7440476 31.577381,35.2380952 C33.125,32.6190476 35.4464286,31.547619 38.422619,31.6666667 C39.1369048,31.6964286 39.8511905,31.4285714 40.3571429,30.8928571 C42.1130952,29.2857143 44.1369048,28.3333333 46.547619,29.5238095 C46.9345238,29.7321429 47.4107143,29.702381 47.7678571,29.4642857 C50.2083333,28.2440476 52.6785714,27.9761905 55.0595238,29.4940476 C55.4464286,29.7321429 55.7142857,29.9404762 56.2202381,29.5535714 C58.0059524,28.1547619 59.8214286,28.3928571 61.4880952,29.7619048 C65,32.6190476 68.3333333,35.7440476 71.4285714,39.047619 C74.7916667,42.5595238 75.4761905,46.4285714 73.8690476,50.922619 C73.0059524,53.3333333 72.0535714,55.7440476 71.0119048,58.0654762 C69.047619,62.3511905 66.9642857,66.5178571 63.6607143,69.9702381 C62.4107143,71.2797619 61.8452381,72.7380952 62.1428571,74.672619 C62.5297619,77.4107143 62.7380952,80.1785714 62.797619,82.9464286 C62.827381,84.375 63.0654762,84.5535714 64.375,83.9880952 C72.8571429,80.297619 79.1964286,74.375 83.422619,66.1011905 C87.7380952,57.6190476 88.5119048,48.75 86.1011905,39.702381 C83.2738095,29.1369048 76.8154762,21.3095238 67.1428571,16.1607143 C60.7440476,12.797619 53.4821429,11.3988095 46.2797619,12.202381 C35.297619,13.422619 26.3392857,18.5119048 19.7916667,27.6488095 Z" id="Shape" fill="#6F88BE"></path>
                <path d="M19.8809524,27.5297619 C26.4285714,18.3928571 35.4464286,13.3630952 46.547619,12.202381 C53.7202381,11.4285714 60.9821429,12.8571429 67.3511905,16.3392857 C77.0238095,21.5178571 83.452381,29.375 86.2202381,39.9702381 C88.6011905,49.047619 87.7678571,57.8869048 83.422619,66.3690476 C79.1964286,74.6428571 72.797619,80.5059524 64.3154762,84.1666667 C63.0357143,84.702381 62.7678571,84.5535714 62.7380952,83.125 C62.7083333,80.327381 62.5,77.5892857 62.1130952,74.8511905 C61.8452381,72.9166667 62.4107143,71.4583333 63.6607143,70.1488095 C66.9642857,66.6964286 69.077381,62.5297619 71.0416667,58.2738095 C72.1130952,55.922619 73.0654762,53.5416667 73.9285714,51.1309524 C75.5654762,46.6666667 74.9107143,42.7678571 71.547619,39.2559524 C68.422619,35.952381 65.1488095,32.8571429 61.6369048,29.9107143 C59.9702381,28.5416667 58.1547619,28.3035714 56.3690476,29.672619 C55.8630952,30.0595238 55.5952381,29.8511905 55.2083333,29.6130952 C52.7678571,28.0952381 50.3571429,28.3333333 47.9166667,29.5535714 C47.5595238,29.7916667 47.0535714,29.8214286 46.6964286,29.6130952 C44.2857143,28.422619 42.2321429,29.3452381 40.5059524,30.952381 C40,31.4880952 39.2857143,31.7559524 38.5714286,31.7261905 C35.625,31.577381 33.2440476,32.6190476 31.7261905,35.2678571 C31.4285714,35.7738095 31.0714286,36.0714286 30.4166667,36.0416667 C28.8690476,35.952381 28.0357143,36.9642857 27.5595238,38.1845238 C25.5654762,42.797619 24.1964286,47.6190476 22.9166667,52.4404762 C22.4107143,54.4642857 23.0952381,56.4880952 23.8988095,58.3630952 C25.2678571,61.6071429 27.2321429,64.4047619 30.0892857,66.547619 C30.9821429,67.2321429 31.8154762,68.0059524 32.6488095,68.7797619 C33.3333333,69.3452381 33.6904762,70.2083333 33.6607143,71.1309524 C33.5714286,74.672619 33.5714286,78.2440476 33.5714286,81.8452381 C33.5714286,82.6190476 33.6309524,83.3333333 32.4702381,82.6488095 C26.9642857,79.5238095 22.2916667,75.5059524 18.8095238,70.1785714 C16.1607143,66.1309524 14.3154762,61.6666667 13.3630952,56.9345238 C11.7559524,48.7202381 12.7380952,40.8928571 16.3095238,33.3630952 C17.2619048,31.25 18.452381,29.3452381 19.8809524,27.5297619 Z" id="Shape" fill="#A2C7F4"></path>
            </g>
        </g>
    </g>
</svg>