<?xml version="1.0" encoding="UTF-8"?>
<svg width="100px" height="100px" viewBox="0 0 100 100" version="1.1" xmlns="http://www.w3.org/2000/svg" xmlns:xlink="http://www.w3.org/1999/xlink">
    <!-- Generator: Sketch 51.3 (57544) - http://www.bohemiancoding.com/sketch -->
    <title>scissors</title>
    <desc>Created with Sketch.</desc>
    <defs></defs>
    <g id="Page-1" stroke="none" stroke-width="1" fill="none" fill-rule="evenodd">
        <g id="Player-vs-Bot" transform="translate(-197.000000, -517.000000)" fill-rule="nonzero">
            <g id="scissors" transform="translate(197.000000, 517.000000)">
                <path d="M49.8511905,99.7321429 C22.2916667,99.7321429 1.38777878e-17,77.3511905 0.0297619048,49.7916667 C0.0595238095,22.2916667 22.3511905,8.67361738e-17 49.8511905,0.0297619048 L50.0297619,0.0297619048 C77.7678571,0.148809524 99.702381,22.4404762 99.7321429,50.0297619 C99.7321429,77.4702381 77.3511905,99.7321429 49.8511905,99.7321429 Z M95.7142857,49.702381 C95.8928571,24.6428571 75.3571429,3.7797619 50.297619,3.66071429 C37.6785714,3.60119048 26.6964286,7.94642857 17.6785714,16.7857143 C7.5297619,26.7261905 2.76785714,39.047619 3.86904762,53.0654762 C5.86309524,78.3630952 26.4583333,95.1785714 48.8392857,95.625 C74.3154762,96.1309524 95.7440476,75.625 95.7142857,49.702381 Z" id="Shape" fill="#6F88BE"></path>
                <path d="M95.7142857,49.702381 C95.7142857,75.625 74.3154762,96.1607143 48.8392857,95.625 C26.4583333,95.1785714 5.86309524,78.3630952 3.86904762,53.0654762 C2.76785714,39.047619 7.5297619,26.7261905 17.6785714,16.7857143 C26.6964286,7.94642857 37.6785714,3.60119048 50.297619,3.66071429 C75.3571429,3.7797619 95.8928571,24.6428571 95.7142857,49.702381 Z M44.1071429,68.8095238 L43.9880952,68.8095238 L44.1071429,68.8095238 C44.3452381,68.6607143 44.5833333,68.452381 44.672619,68.1845238 C46.4285714,64.077381 48.0654762,63.0654762 52.4404762,63.3630952 C53.8095238,63.452381 55.2083333,63.6309524 56.577381,63.7202381 C57.7380952,63.7797619 58.1547619,63.2142857 58.0654762,62.0535714 C57.827381,59.4345238 57.7380952,59.3154762 55.1785714,58.8392857 C54.4345238,58.7202381 53.7202381,58.6309524 52.9761905,58.6011905 C51.2202381,58.452381 49.5833333,57.9761905 48.1547619,56.8452381 C47.5297619,56.3392857 47.172619,55.7142857 47.3511905,54.9107143 C47.5297619,54.1666667 48.0952381,53.9880952 48.75,53.75 C50.4464286,53.1845238 52.1130952,52.5297619 53.7797619,51.9345238 C54.702381,51.577381 55.7142857,51.4880952 56.6964286,51.6369048 C61.3095238,52.3511905 63.8690476,55.4761905 65.8630952,59.3154762 C67.0238095,61.3988095 67.0535714,63.8988095 65.952381,66.0119048 C64.5535714,68.9285714 62.7380952,71.6071429 60.8928571,74.2261905 C60.0595238,75.4166667 59.5833333,76.7857143 59.5238095,78.2440476 C59.2857143,81.6071429 59.2261905,84.9702381 59.2261905,88.3630952 C59.2261905,89.4047619 59.3452381,89.7321429 60.5357143,89.4047619 C81.0714286,84.1369048 94.4345238,63.422619 90.7738095,42.5595238 C86.9940476,21.1309524 67.6785714,6.19047619 46.1309524,8.36309524 C30.4761905,9.94047619 18.9880952,18.0952381 12.4404762,32.3511905 C5.92261905,46.577381 7.4702381,60.4761905 16.3095238,73.3928571 C21.1309524,80.4166667 27.7083333,85.297619 35.7142857,88.2738095 C36.7559524,88.6607143 37.2619048,88.8690476 37.1428571,87.3511905 C36.9642857,84.6428571 36.9345238,81.9047619 36.9940476,79.1666667 C37.0238095,78.0357143 36.6369048,77.3511905 35.7738095,76.6964286 C33.6904762,75.0892857 31.8452381,73.2142857 30.2678571,71.1011905 C28.2142857,68.2738095 28.9583333,65.1488095 28.9880952,61.7857143 C29.9107143,62.5892857 30.5357143,63.2440476 31.25,63.75 C33.9285714,65.625 36.7857143,64.7321429 37.8571429,61.6369048 C38.0357143,61.1309524 38.1547619,61.0714286 38.6607143,61.2202381 C40.3571429,61.6666667 41.5178571,60.9821429 41.9940476,59.2857143 C42.3511905,58.0654762 42.2619048,56.8154762 42.0238095,55.5952381 C40.5059524,47.3214286 39.702381,38.8988095 39.6130952,30.5059524 C39.6130952,27.9166667 39.5535714,25.3571429 39.6428571,22.7678571 C39.702381,20.922619 40.922619,19.7321429 42.5,19.7619048 C43.8988095,19.7916667 44.672619,20.7142857 44.9107143,22.5892857 C45.5357143,27.797619 46.1309524,33.0059524 46.7559524,38.2142857 C47.0833333,40.952381 47.5,43.7202381 47.9166667,46.4583333 C48.0059524,47.1130952 48.2738095,47.7380952 49.0178571,47.9166667 C49.7916667,48.125 50.3869048,47.7083333 50.8035714,47.1130952 C51.2797619,46.4285714 51.6964286,45.6845238 52.0535714,44.9404762 C55,38.8690476 57.9166667,32.827381 60.8630952,26.7559524 C61.1607143,26.0714286 61.577381,25.4464286 62.1130952,24.9107143 C63.0952381,23.9880952 64.1666667,23.6607143 65.3571429,24.4345238 C66.547619,25.2083333 66.1904762,26.2797619 65.8333333,27.3809524 C63.422619,34.8809524 61.0119048,42.3511905 58.6904762,49.8809524 C58.452381,50.6845238 58.1845238,50.6845238 57.5892857,50.5059524 C55.952381,50.0595238 54.3452381,50.297619 52.797619,50.8928571 C51.3690476,51.4583333 49.9404762,52.0238095 48.4821429,52.4702381 C47.3214286,52.827381 46.3690476,53.3035714 46.1309524,54.6428571 C45.8630952,56.0714286 46.3690476,57.172619 47.5,58.0059524 C49.0178571,59.1369048 50.8630952,59.7619048 52.7380952,59.8511905 C53.7797619,59.9404762 54.7916667,60.0892857 55.8333333,60.297619 C56.7559524,60.5059524 56.6964286,61.3988095 56.6666667,61.9940476 C56.6071429,62.797619 55.922619,62.3214286 55.4761905,62.2916667 C53.9583333,62.202381 52.4107143,61.9642857 50.8928571,61.9940476 C46.9047619,62.1428571 44.0178571,65.0892857 44.1071429,68.8095238 Z" id="Shape" fill="#FBFCFC"></path>
                <path d="M44.1071429,68.8095238 C44.0178571,65.0892857 46.9047619,62.1130952 50.8333333,62.0238095 C52.3511905,61.9940476 53.8988095,62.2321429 55.4166667,62.3214286 C55.8333333,62.3511905 56.547619,62.827381 56.6071429,62.0238095 C56.6666667,61.3988095 56.6964286,60.5059524 55.7738095,60.327381 C54.7619048,60.1190476 53.7202381,59.9702381 52.6785714,59.8809524 C50.7738095,59.7916667 48.9583333,59.1666667 47.4404762,58.0357143 C46.3095238,57.172619 45.8333333,56.0714286 46.0714286,54.672619 C46.3095238,53.3333333 47.2619048,52.8869048 48.422619,52.5 C49.8809524,52.0535714 51.3095238,51.4583333 52.7380952,50.922619 C54.3154762,50.327381 55.8928571,50.0892857 57.5297619,50.5357143 C58.125,50.6845238 58.3928571,50.6845238 58.6309524,49.9107143 C60.952381,42.4107143 63.3928571,34.9107143 65.7738095,27.4107143 C66.1309524,26.3392857 66.4583333,25.2380952 65.297619,24.4642857 C64.1369048,23.6904762 63.0357143,24.0178571 62.0535714,24.9404762 C61.5178571,25.4761905 61.1011905,26.1011905 60.8035714,26.7857143 C57.8869048,32.8571429 54.9702381,38.9285714 52.0238095,45 C51.6666667,45.7440476 51.25,46.4880952 50.7738095,47.172619 C50.3571429,47.7678571 49.7619048,48.1547619 48.9880952,47.9761905 C48.2738095,47.797619 48.0059524,47.1428571 47.8869048,46.5178571 C47.4702381,43.7797619 47.0833333,41.0119048 46.7261905,38.2738095 C46.0714286,33.0654762 45.4761905,27.8571429 44.8809524,22.6488095 C44.6428571,20.7440476 43.8690476,19.8214286 42.4702381,19.8214286 C40.8928571,19.7916667 39.672619,20.9821429 39.6130952,22.827381 C39.5238095,25.3869048 39.5833333,27.9761905 39.5833333,30.5654762 C39.672619,38.9880952 40.4761905,47.3809524 41.9940476,55.6547619 C42.202381,56.875 42.2916667,58.125 41.9642857,59.3452381 C41.4880952,61.0416667 40.327381,61.7261905 38.6309524,61.2797619 C38.0952381,61.1309524 38.0059524,61.1904762 37.827381,61.6964286 C36.7559524,64.7619048 33.8988095,65.6845238 31.2202381,63.8095238 C30.5059524,63.3035714 29.8809524,62.6488095 28.9583333,61.8452381 C28.9285714,65.1785714 28.1845238,68.3333333 30.2380952,71.1607143 C31.8154762,73.2738095 33.6607143,75.1785714 35.7440476,76.7559524 C36.6071429,77.4107143 36.9940476,78.0952381 36.9642857,79.2261905 C36.9047619,81.9642857 36.9345238,84.672619 37.1130952,87.4107143 C37.2321429,88.9285714 36.6964286,88.7202381 35.6845238,88.3333333 C27.6785714,85.3571429 21.1011905,80.4761905 16.2797619,73.452381 C7.44047619,60.5357143 5.89285714,46.6369048 12.4107143,32.4107143 C18.9285714,18.1547619 30.4166667,10 46.1011905,8.42261905 C67.7083333,6.19047619 87.0238095,21.1607143 90.7738095,42.5297619 C94.4047619,63.422619 81.0416667,84.1369048 60.5357143,89.4642857 C59.3452381,89.7619048 59.2261905,89.4345238 59.2261905,88.422619 C59.2559524,85.0595238 59.3154762,81.6964286 59.5238095,78.3035714 C59.5833333,76.875 60.0595238,75.4761905 60.8928571,74.2857143 C62.7380952,71.6666667 64.5535714,68.9880952 65.952381,66.0714286 C67.0535714,63.9583333 67.0238095,61.4583333 65.8630952,59.375 C63.8690476,55.5357143 61.3095238,52.4107143 56.6964286,51.6964286 C55.7142857,51.547619 54.7321429,51.6369048 53.7797619,51.9940476 C52.0833333,52.5892857 50.4464286,53.2440476 48.75,53.8095238 C48.0952381,54.0178571 47.5,54.2261905 47.3511905,54.9702381 C47.172619,55.8035714 47.5297619,56.4285714 48.1547619,56.9047619 C49.5535714,58.0357143 51.1904762,58.5119048 52.9761905,58.6607143 C53.7202381,58.6904762 54.4642857,58.7797619 55.1785714,58.8988095 C57.7380952,59.3452381 57.797619,59.4940476 58.0654762,62.1130952 C58.1845238,63.2738095 57.7380952,63.8392857 56.577381,63.7797619 C55.2083333,63.6904762 53.8095238,63.5119048 52.4404762,63.422619 C48.0654762,63.125 46.3988095,64.1369048 44.672619,68.2440476 C44.5535714,68.5119048 44.3452381,68.7202381 44.077381,68.8392857 L44.1071429,68.8095238 Z M49.702381,43.8690476 L50.1190476,43.9285714 L52.4404762,39.1666667 C54.7916667,34.3154762 57.0833333,29.4047619 59.5535714,24.5833333 C60.7440476,22.202381 63.7202381,21.1607143 65.8928571,22.1428571 C68.1547619,23.1547619 68.9583333,25.297619 68.0952381,27.8571429 C65.7738095,35 63.452381,42.172619 61.1011905,49.3154762 C60.8035714,50.1785714 60.952381,50.625 61.7261905,51.1011905 C65.1785714,53.2738095 67.2916667,56.5178571 68.6904762,60.2678571 C69.375,62.1130952 69.1964286,63.9583333 68.5119048,65.7738095 C67.5297619,68.422619 66.1607143,70.922619 64.4047619,73.1547619 C62.3511905,75.7440476 61.3392857,78.5119048 61.6369048,81.7857143 C61.6666667,82.1428571 61.6369048,82.4702381 61.6369048,82.827381 C61.6369048,84.7619048 61.6964286,84.8214286 63.5119048,84.1071429 C69.9702381,81.577381 75.4166667,77.6785714 79.6428571,72.1428571 C86.0416667,63.75 88.6607143,54.2857143 87.202381,43.8095238 C85.952381,34.8214286 81.8452381,27.2321429 75.0297619,21.1904762 C66.4285714,13.6011905 56.3988095,10.625 45.1785714,12.0238095 C34.9702381,13.2738095 26.6666667,18.1845238 20.3869048,26.3392857 C14.1964286,34.375 11.7261905,43.6309524 12.9166667,53.6904762 C14.047619,63.2738095 18.4821429,71.25 25.7142857,77.6190476 C28.0952381,79.702381 30.7738095,81.4583333 33.6607143,82.797619 C34.077381,83.0059524 34.7916667,83.5416667 34.8511905,82.5297619 C34.9702381,80.5654762 35.0297619,78.8392857 33.0357143,77.3214286 C28.2738095,73.6904762 25.5357143,68.9583333 26.7857143,62.6190476 C27.0238095,61.3095238 26.8154762,59.9404762 26.1904762,58.75 C24.702381,55.8035714 23.8690476,52.7380952 24.4047619,49.3154762 C24.9404762,45.8928571 26.3392857,43.8988095 29.6428571,42.9166667 C30.0297619,42.797619 30.327381,42.5 30.4166667,42.1428571 C31.577381,39.3452381 33.6904762,37.7380952 36.6666667,37.3214286 C37.4107143,37.2321429 37.5595238,36.9047619 37.5595238,36.2797619 C37.5297619,34.5833333 37.4702381,32.9166667 37.5595238,31.2202381 C37.7083333,28.0952381 36.9345238,25.0297619 37.5297619,21.9047619 C38.0059524,19.4940476 39.7321429,17.7678571 42.172619,17.6785714 C44.6130952,17.5892857 46.6666667,18.9583333 46.9940476,21.0119048 C47.3809524,23.6011905 47.6190476,26.1904762 47.9464286,28.8095238 L49.702381,43.8690476 Z M40.7738095,57.4702381 C39.8511905,51.9047619 39.1964286,46.3095238 38.5416667,40.7142857 C38.3928571,39.4345238 37.7380952,39.3154762 36.7261905,39.4940476 C34.3452381,39.9107143 32.5297619,41.8154762 32.2321429,44.1964286 C32.0535714,45.4761905 32.1428571,46.8154762 32.5,48.0654762 C33.5714286,52.2619048 35.297619,56.1011905 38.3928571,59.2261905 C38.75,59.5833333 39.1369048,60.1488095 39.7619048,59.9404762 C40.4464286,59.702381 40.6547619,59.047619 40.7738095,58.3928571 C40.8035714,58.0654762 40.8035714,57.7678571 40.7738095,57.4702381 Z M26.3988095,51.4285714 C26.8452381,55.8035714 28.5119048,59.6130952 32.0238095,62.4702381 C33.3035714,63.5119048 35.0595238,63.422619 35.952381,62.4702381 C36.9047619,61.4285714 36.8154762,59.8809524 35.8333333,58.6011905 C33.1547619,55.0595238 31.3988095,51.1011905 30.8630952,46.6666667 C30.625,44.8214286 30.0297619,44.5833333 28.4821429,45.7142857 C28.0059524,46.0714286 27.6488095,46.547619 27.3809524,47.0833333 C26.6369048,48.422619 26.4880952,49.8809524 26.3988095,51.4285714 Z M44.1071429,68.7797619 L44.0178571,68.8095238 L44.1071429,68.7797619 Z" id="Shape" fill="#6F88BE"></path>
                <path d="M49.702381,43.8690476 L47.9166667,28.7202381 C47.6190476,26.1309524 47.3809524,23.5119048 46.9642857,20.922619 C46.6666667,18.8690476 44.5535714,17.5 42.1428571,17.5892857 C39.7321429,17.6785714 37.9761905,19.4047619 37.5,21.8154762 C36.9047619,24.9404762 37.6785714,28.0357143 37.5297619,31.1309524 C37.4404762,32.827381 37.5297619,34.4940476 37.5297619,36.1904762 C37.5297619,36.8452381 37.3809524,37.1428571 36.6369048,37.2321429 C33.6607143,37.6488095 31.547619,39.2559524 30.3869048,42.0535714 C30.2678571,42.4404762 29.9702381,42.7380952 29.6130952,42.827381 C26.3095238,43.8095238 24.8809524,45.8035714 24.375,49.1964286 C23.8690476,52.5892857 24.672619,55.6845238 26.1607143,58.6309524 C26.7857143,59.8214286 26.9940476,61.1904762 26.7559524,62.5 C25.5059524,68.8392857 28.2440476,73.5416667 33.0059524,77.202381 C35,78.7202381 34.9404762,80.4464286 34.8214286,82.4107143 C34.7619048,83.422619 34.047619,82.8869048 33.6309524,82.6785714 C30.7440476,81.3392857 28.0952381,79.5833333 25.6845238,77.5 C18.452381,71.1309524 14.0178571,63.1547619 12.8869048,53.5714286 C11.6964286,43.5119048 14.1666667,34.2857143 20.3571429,26.2202381 C26.6369048,18.0952381 34.9404762,13.1845238 45.1488095,11.9047619 C56.3690476,10.5059524 66.3988095,13.5119048 74.9404762,21.1011905 C81.7857143,27.172619 85.8630952,34.7321429 87.1130952,43.7202381 C88.5714286,54.1666667 85.952381,63.6309524 79.5535714,72.0535714 C75.327381,77.5892857 69.8809524,81.4583333 63.422619,84.0178571 C61.6369048,84.7321429 61.547619,84.672619 61.547619,82.7380952 C61.547619,82.3809524 61.577381,82.0535714 61.547619,81.6964286 C61.25,78.422619 62.2619048,75.6845238 64.3154762,73.0654762 C66.0714286,70.8333333 67.4404762,68.3630952 68.422619,65.7142857 C69.1071429,63.8988095 69.2857143,62.0535714 68.6011905,60.2083333 C67.2321429,56.4285714 65.0892857,53.2142857 61.6369048,51.0416667 C60.8928571,50.5654762 60.7440476,50.1190476 61.0119048,49.2559524 C63.3630952,42.1130952 65.6547619,34.9404762 68.0059524,27.797619 C68.8392857,25.2083333 68.0357143,23.0952381 65.8035714,22.0833333 C63.6607143,21.1309524 60.6845238,22.1428571 59.4642857,24.5238095 C57.0238095,29.3452381 54.7321429,34.2261905 52.3511905,39.1071429 L50.0297619,43.8690476 L49.702381,43.8690476 Z" id="Shape" fill="#A2C7F4"></path>
                <path d="M40.7738095,57.4702381 C40.8035714,57.7678571 40.8035714,58.0654762 40.7738095,58.3630952 C40.6547619,59.0178571 40.4464286,59.672619 39.7619048,59.9107143 C39.1369048,60.1190476 38.75,59.5535714 38.3928571,59.1964286 C35.2678571,56.0714286 33.5714286,52.2321429 32.4702381,48.0357143 C32.1428571,46.7857143 32.0535714,45.4464286 32.202381,44.1666667 C32.5,41.7857143 34.3452381,39.8809524 36.6964286,39.4642857 C37.6785714,39.2857143 38.3630952,39.4047619 38.5119048,40.6845238 C39.1964286,46.3095238 39.8511905,51.9047619 40.7738095,57.4702381 Z M26.3988095,51.4285714 C26.4880952,49.9107143 26.6666667,48.422619 27.3511905,47.0833333 C27.6190476,46.547619 27.9761905,46.0714286 28.452381,45.7142857 C30.0297619,44.5833333 30.625,44.8214286 30.8333333,46.6666667 C31.3690476,51.1011905 33.125,55.0595238 35.8035714,58.6011905 C36.7857143,59.9107143 36.8452381,61.4285714 35.922619,62.4702381 C35.0297619,63.452381 33.2738095,63.5119048 31.9940476,62.4702381 C28.5119048,59.6130952 26.8452381,55.8035714 26.3988095,51.4285714 Z" id="Shape" fill="#FBFCFC"></path>
            </g>
        </g>
    </g>
</svg>