<?xml version="1.0" encoding="UTF-8"?>
<svg width="100px" height="100px" viewBox="0 0 100 100" version="1.1" xmlns="http://www.w3.org/2000/svg" xmlns:xlink="http://www.w3.org/1999/xlink">
    <!-- Generator: Sketch 51.3 (57544) - http://www.bohemiancoding.com/sketch -->
    <title>spock</title>
    <desc>Created with Sketch.</desc>
    <defs></defs>
    <g id="Page-1" stroke="none" stroke-width="1" fill="none" fill-rule="evenodd">
        <g id="Player-vs-Bot" transform="translate(-257.000000, -400.000000)" fill-rule="nonzero">
            <g id="spock" transform="translate(257.000000, 400.000000)">
                <path d="M99.704142,49.8214286 C99.2307692,78.3928571 76.9822485,100.178571 48.816568,99.702381 C21.6568047,99.2261905 0.118343195,76.3095238 0.591715976,48.452381 C1.06508876,21.1904762 23.9053254,-0.654761905 51.5976331,0.0595238095 C78.7573964,0.714285714 99.704142,23.2142857 99.704142,49.8214286 Z M4.61538462,50.7142857 C4.79289941,62.4404762 9.11242604,73.2738095 17.9289941,82.2619048 C27.3964497,91.8452381 39.112426,96.6666667 52.3076923,95.952381 C77.8698225,94.4642857 95.8579882,74.4047619 96.035503,50.297619 C96.3313609,25 76.1538462,4.22619048 51.0059172,3.92857143 L50.295858,3.92857143 C25.147929,3.80952381 4.67455621,24.4642857 4.61538462,50.7142857 Z" id="Shape" fill="#6F88BE"></path>
                <path d="M4.61538462,50.7142857 C4.67455621,24.4642857 25.0887574,3.80952381 50.295858,3.86904762 C75.443787,3.75 95.9171598,24.2261905 96.035503,49.5238095 L96.035503,50.2380952 C95.7988166,74.3452381 77.8698225,94.4642857 52.3076923,95.8928571 C39.112426,96.6666667 27.3964497,91.8452381 17.9289941,82.202381 C9.11242604,73.2738095 4.79289941,62.4404762 4.61538462,50.7142857 Z M52.3076923,73.8095238 C52.5443787,72.9166667 52.6627219,71.9642857 52.7810651,71.0714286 C53.1360947,67.797619 52.2485207,64.8809524 49.6449704,62.7380952 C48.2248521,61.547619 46.8639053,61.1904762 45.3254438,61.6071429 C50.4733728,64.1666667 52.3668639,68.3928571 51.8343195,73.9285714 C51.5976331,74.3452381 51.5976331,74.8214286 51.8343195,75.2380952 C52.1301775,74.8214286 52.3076923,74.3452381 52.3076923,73.8095238 Z M45.9171598,49.1666667 C47.2781065,48.5119048 48.7573964,48.1547619 50.2366864,48.1547619 C49.7633136,47.202381 48.4615385,47.5 48.2840237,46.3095238 C47.3964497,39.1071429 46.4497041,31.8452381 45.5029586,24.6428571 C45.3846154,23.6904762 45.9171598,23.1547619 46.6272189,22.7380952 C48.5798817,21.6666667 50.4733728,22.5595238 50.7692308,24.8214286 C51.4201183,29.2857143 52.0118343,33.75 52.6035503,38.2142857 C52.9585799,41.0119048 53.3727811,43.8095238 53.7869822,46.6071429 C53.8461538,47.2619048 54.0828402,47.797619 54.7928994,47.9166667 C55.5029586,48.0357143 55.6213018,47.3809524 55.8579882,46.9047619 C56.3313609,45.952381 56.7455621,45 57.1005917,44.047619 C59.0532544,38.75 60.9467456,33.452381 62.8994083,28.1547619 C63.4319527,26.6666667 64.3786982,26.1309524 65.739645,26.4880952 C67.1005917,26.8452381 68.1065089,28.0952381 68.1065089,29.5238095 C68.0473373,31.0119048 67.7514793,32.5 67.2189349,33.8690476 C65.5029586,38.2142857 63.8461538,42.5 62.1301775,46.8452381 C61.6568047,48.0952381 61.3609467,49.5238095 59.3491124,49.1071429 C60.7692308,49.5833333 62.1301775,50.4166667 63.1952663,51.4880952 C63.4319527,50.4761905 62.2485207,49.9404762 62.7218935,48.8690476 C64.6153846,44.2261905 66.4497041,39.5238095 68.2840237,34.7619048 C68.6390533,33.8095238 69.2899408,33.75 70.0591716,33.9880952 C71.3609467,34.4642857 71.6568047,35.5357143 71.4201183,36.7857143 C70.9467456,38.9880952 70.4142012,41.25 69.9408284,43.452381 C68.7573964,49.1666667 67.0414201,54.7619048 67.1597633,60.7142857 C67.2781065,66.0714286 66.2721893,71.0714286 62.6035503,75.2380952 C61.5384615,76.4880952 61.0059172,78.0952381 61.183432,79.7619048 C61.3017751,82.3809524 61.2426036,85 61.2426036,87.6190476 C61.2426036,89.4047619 61.2426036,89.4047619 62.9585799,88.8690476 C84.4970414,81.8452381 96.3313609,58.5714286 89.3491124,36.8452381 C83.3727811,18.3333333 65.3254438,6.48809524 46.0946746,8.51190476 C34.7337278,9.64285714 25.3846154,14.702381 18.2840237,23.6309524 C4.55621302,40.5952381 6.39053254,65.3571429 22.4852071,80.0595238 C27.4556213,84.6428571 33.4319527,87.9166667 39.9408284,89.6428571 C40.9467456,89.8809524 41.183432,89.7619048 41.183432,88.6904762 C41.183432,85.8928571 40.9467456,83.1547619 40.8284024,80.3571429 C40.8284024,78.8095238 40.1183432,77.3809524 38.9349112,76.3690476 C36.6863905,74.4642857 34.6745562,72.3809524 32.8994083,70.0595238 C29.5266272,65.4166667 26.035503,60.8333333 21.1242604,57.6785714 C20.9467456,57.5595238 20.8284024,57.4404762 20.7100592,57.2619048 C19.8224852,56.3095238 19.8224852,55.6547619 20.9467456,54.8214286 C22.4852071,53.6309524 24.2011834,53.6309524 25.9763314,54.2261905 C28.6982249,55.1785714 30.8284024,57.0238095 33.0769231,58.6904762 C34.3195266,59.5833333 35.5621302,60.4761905 37.1005917,60.7738095 C39.0532544,61.0714286 39.704142,60.6547619 39.9408284,58.6309524 C40.591716,53.1547619 40.295858,47.6190476 40.0591716,42.1428571 C39.8816568,38.0952381 39.5266272,34.047619 39.3491124,30 C39.2307692,27.5 40.6508876,25.7142857 42.8402367,25.4166667 C43.6686391,25.297619 44.2011834,25.4166667 44.3786982,26.4880952 C45.0887574,32.2619048 45.9171598,38.0952381 46.6863905,43.8690476 C46.9230769,45.7142857 47.5147929,47.5595238 45.6804734,48.9880952 C45.6213018,49.1071429 45.2662722,49.1666667 45.443787,49.4047619 C45.5621302,49.4642857 45.7988166,49.3452381 45.9171598,49.1666667 Z" id="Shape" fill="#FDFEFF"></path>
                <path d="M45.6804734,48.9285714 C47.5147929,47.5595238 46.9230769,45.6547619 46.6863905,43.8095238 C45.9171598,38.0357143 45.147929,32.2619048 44.3786982,26.4285714 C44.260355,25.3571429 43.7278107,25.2380952 42.8402367,25.3571429 C40.6508876,25.7142857 39.2307692,27.4404762 39.3491124,29.9404762 C39.5266272,33.9880952 39.8816568,38.0357143 40.0591716,42.0833333 C40.295858,47.5595238 40.5325444,53.0952381 39.9408284,58.5714286 C39.704142,60.5952381 39.0532544,61.0119048 37.1005917,60.7142857 C35.5029586,60.4761905 34.260355,59.5833333 33.0769231,58.6309524 C30.8284024,56.9642857 28.6982249,55.1190476 25.9763314,54.1666667 C24.2011834,53.5714286 22.4852071,53.5714286 20.9467456,54.7619048 C19.8816568,55.5952381 19.8224852,56.25 20.7100592,57.202381 C20.8284024,57.3809524 20.9467456,57.5 21.1242604,57.6190476 C26.035503,60.7738095 29.5266272,65.3571429 32.8994083,70 C34.6745562,72.3214286 36.6863905,74.4047619 38.9349112,76.3095238 C40.1183432,77.3214286 40.7692308,78.75 40.8284024,80.297619 C40.9467456,83.0952381 41.183432,85.8333333 41.183432,88.6309524 C41.183432,89.702381 40.9467456,89.8809524 39.9408284,89.5833333 C33.4319527,87.9166667 27.3964497,84.6428571 22.4852071,80 C6.39053254,65.297619 4.55621302,40.5357143 18.2840237,23.5714286 C25.0887574,14.8809524 35.147929,9.4047619 46.0946746,8.45238095 C68.6390533,6.13095238 88.816568,22.6190476 91.1242604,45.297619 C93.1360947,64.702381 81.3609467,82.797619 62.9585799,88.8095238 C61.3017751,89.3452381 61.3017751,89.3452381 61.2426036,87.5595238 C61.2426036,84.9404762 61.2426036,82.3214286 61.183432,79.702381 C61.0059172,78.0357143 61.5384615,76.4285714 62.6035503,75.1785714 C66.2721893,71.0119048 67.2189349,66.0119048 67.1597633,60.6547619 C67.0414201,54.7619048 68.7573964,49.1071429 69.9408284,43.3928571 C70.4142012,41.1904762 70.9467456,38.9285714 71.4201183,36.7261905 C71.6568047,35.4761905 71.3609467,34.4047619 70.0591716,33.9285714 C69.2899408,33.6309524 68.6982249,33.6904762 68.2840237,34.702381 C66.5088757,39.4047619 64.6745562,44.1071429 62.7218935,48.8095238 C62.3076923,49.8809524 63.4911243,50.3571429 63.1952663,51.4285714 C62.0710059,50.3571429 60.7692308,49.5833333 59.3491124,49.047619 C61.3609467,49.4642857 61.6568047,48.0357143 62.1301775,46.7857143 C63.7869822,42.4404762 65.5029586,38.0952381 67.2189349,33.8095238 C67.7514793,32.4404762 68.1065089,30.952381 68.1065089,29.4642857 C68.1065089,28.0357143 67.1005917,26.7857143 65.739645,26.4285714 C64.3786982,26.0714286 63.4911243,26.6071429 62.8994083,28.0952381 C60.9467456,33.3928571 59.0532544,38.6904762 57.1005917,43.9880952 C56.7455621,44.9404762 56.3313609,45.8928571 55.8579882,46.8452381 C55.6213018,47.3214286 55.5621302,47.9761905 54.7928994,47.8571429 C54.0236686,47.7380952 53.9053254,47.202381 53.7869822,46.547619 C53.4319527,43.75 53.0177515,40.952381 52.6035503,38.1547619 C52.0118343,33.6904762 51.4201183,29.2261905 50.7692308,24.7619048 C50.4733728,22.5595238 48.5798817,21.6666667 46.6272189,22.6785714 C45.8579882,22.9761905 45.3846154,23.75 45.5029586,24.5833333 C46.4497041,31.7857143 47.3964497,38.9880952 48.2840237,46.25 C48.4615385,47.4404762 49.7633136,47.1428571 50.2366864,48.0952381 C48.7573964,48.0952381 47.2781065,48.3928571 45.9171598,49.1071429 C45.8579882,49.1071429 45.739645,48.9880952 45.6804734,48.9285714 Z M55.6213018,40.1190476 C55.9763314,39.4642857 56.0946746,39.1666667 56.2130178,38.9285714 C57.2189349,36.1904762 58.1065089,33.3928571 59.1715976,30.7142857 C59.8224852,28.9880952 60.0591716,27.1428571 61.1242604,25.6547619 C62.4852071,23.8095238 64.9704142,23.1547619 67.0414201,24.1071429 C69.6449704,25.2380952 71.3017751,27.797619 70.887574,30.3571429 C70.7100592,31.25 70.887574,31.547619 71.6568047,31.9642857 C73.6094675,32.9761905 74.6153846,35.1785714 74.0828402,37.3214286 C73.6686391,39.1666667 73.3136095,41.0119048 72.8402367,42.797619 C71.0059172,50.297619 69.6449704,57.8571429 69.4674556,65.5952381 C69.4674556,68.8095238 68.4023669,71.9047619 66.4497041,74.4047619 C64.6153846,76.7857143 63.3136095,79.2857143 63.9053254,82.4404762 L63.9053254,82.5595238 C63.9053254,84.3452381 63.9053254,84.3452381 65.6213018,83.5714286 C69.8816568,81.547619 73.7278107,78.6904762 76.9822485,75.2380952 C85.443787,66.1309524 88.4615385,55.297619 86.5680473,43.1547619 C85.3254438,35.1190476 81.5384615,28.2142857 75.6213018,22.5595238 C67.3372781,14.6428571 57.3964497,11.25 46.1538462,12.3214286 C36.9230769,13.0952381 28.3431953,17.4404762 22.2485207,24.4642857 C14.556213,33.0952381 11.5976331,43.2142857 13.0177515,54.6428571 C14.3195266,64.8214286 19.1715976,72.9761905 27.2189349,79.2857143 C30.0591716,81.4880952 33.1952663,83.3333333 36.5680473,84.5833333 C37.1005917,84.8214286 38.1065089,85.2380952 38.1065089,84.3452381 C38.1656805,82.1428571 38.6982249,79.8214286 36.6272189,77.9761905 C34.4970414,76.1904762 32.6035503,74.1666667 30.887574,71.9642857 C28.5207101,68.9285714 26.3905325,65.7142857 23.5502959,63.0357143 C22.0118343,61.6071429 20.1775148,60.6547619 18.6982249,59.1666667 C16.5680473,56.9047619 16.8047337,54.4047619 19.2899408,52.6190476 C21.7751479,50.8333333 24.4378698,50.7738095 27.1597633,51.7857143 C30.1183432,52.8571429 32.4852071,54.8809524 34.9704142,56.7857143 C35.6213018,57.2619048 36.4497041,58.0357143 36.9822485,57.7380952 C37.6331361,57.4404762 37.5147929,56.3095238 37.5147929,55.4761905 C37.6923077,49.5833333 37.4556213,43.6904762 37.1597633,37.797619 C37.0414201,35.8333333 36.9822485,33.8690476 36.7455621,31.9047619 C36.2130178,27.6785714 37.4556213,23.6309524 42.6035503,22.6785714 C43.1360947,22.5595238 43.3136095,22.202381 43.5502959,21.8452381 C44.9112426,20.1190476 47.2189349,19.2857143 49.3491124,19.8214286 C51.7159763,20.2380952 52.8994083,21.8452381 53.2544379,24.047619 C53.7869822,27.2619048 54.1420118,30.4761905 54.6153846,33.6904762 C54.9704142,35.7142857 55.2662722,37.6785714 55.6213018,40.1190476 Z" id="Shape" fill="#6F88BE"></path>
                <path d="M51.8934911,73.8690476 C52.4852071,68.3333333 50.5325444,64.1071429 45.3846154,61.547619 C46.9230769,61.1309524 48.2840237,61.4880952 49.704142,62.6785714 C52.3076923,64.8809524 53.1952663,67.7380952 52.8402367,71.0119048 C52.7218935,71.9642857 52.4852071,72.8571429 52.3668639,73.75 C52.1893491,73.8095238 52.0118343,73.8095238 51.8934911,73.8690476 Z" id="Shape" fill="#6F88BE"></path>
                <path d="M51.8934911,73.8690476 C52.0710059,73.8690476 52.1893491,73.8095238 52.3668639,73.8095238 C52.3668639,74.2857143 52.1893491,74.7619048 51.9526627,75.1785714 C51.7159763,74.7619048 51.6568047,74.2857143 51.8934911,73.8690476 Z" id="Shape" fill="#77AFBF"></path>
                <path d="M45.9171598,49.1666667 C45.7988166,49.3452381 45.5621302,49.4642857 45.443787,49.3452381 C45.3254438,49.2261905 45.5621302,49.1071429 45.6804734,48.9285714 L45.9171598,49.1666667 Z" id="Shape" fill="#447391"></path>
                <path d="M55.6213018,40.1190476 C55.2662722,37.6785714 55.0295858,35.7142857 54.7337278,33.75 C54.260355,30.5357143 53.9053254,27.2619048 53.3727811,24.1071429 C53.0177515,21.9047619 51.8343195,20.297619 49.4674556,19.8809524 C47.1005917,19.4642857 45.147929,20 43.6686391,21.9047619 C43.3727811,22.2619048 43.1952663,22.6190476 42.7218935,22.7380952 C37.5739645,23.6904762 36.3313609,27.7380952 36.8639053,31.9642857 C37.1005917,33.9285714 37.1597633,35.8928571 37.2781065,37.8571429 C37.6331361,43.75 37.8106509,49.6428571 37.6331361,55.5357143 C37.6331361,56.3690476 37.7514793,57.5 37.1005917,57.797619 C36.4497041,58.0952381 35.6804734,57.3214286 35.0887574,56.8452381 C32.6035503,55 30.2366864,52.9166667 27.2781065,51.8452381 C24.556213,50.8333333 21.8934911,50.8928571 19.408284,52.6785714 C16.9230769,54.4642857 16.6863905,57.0238095 18.816568,59.2261905 C20.2366864,60.7738095 22.1301775,61.6666667 23.6686391,63.0952381 C26.5088757,65.7142857 28.6390533,68.9285714 31.0059172,72.0238095 C32.7218935,74.2261905 34.6745562,76.1904762 36.7455621,78.0357143 C38.816568,79.8809524 38.2840237,82.202381 38.2248521,84.4047619 C38.1656805,85.3571429 37.2189349,84.8809524 36.6863905,84.6428571 C33.3136095,83.3928571 30.1775148,81.547619 27.3372781,79.3452381 C19.3491124,73.0357143 14.4378698,64.8809524 13.1360947,54.702381 C11.6568047,43.2738095 14.6745562,33.1547619 22.3668639,24.5238095 C28.4615385,17.5 37.0414201,13.0952381 46.2721893,12.3809524 C57.5147929,11.3690476 67.4556213,14.702381 75.739645,22.6190476 C81.6568047,28.2738095 85.443787,35.1785714 86.6863905,43.2142857 C88.5798817,55.297619 85.5621302,66.1904762 77.1005917,75.297619 C73.8461538,78.75 70,81.6071429 65.739645,83.6309524 C64.0828402,84.4642857 64.0828402,84.4047619 64.0236686,82.6190476 L64.0236686,82.5 C63.4911243,79.3452381 64.7337278,76.8452381 66.5680473,74.4642857 C68.5207101,71.9642857 69.5857988,68.8690476 69.5857988,65.6547619 C69.8224852,57.9761905 71.0059172,50.297619 72.9585799,42.8571429 C73.4319527,41.0119048 73.7869822,39.2261905 74.2011834,37.3809524 C74.7337278,35.2380952 73.7278107,33.0357143 71.7751479,32.0238095 C71.0650888,31.6666667 70.887574,31.3095238 71.0059172,30.4166667 C71.4201183,27.9166667 69.7633136,25.297619 67.1597633,24.1666667 C65.0887574,23.2142857 62.6035503,23.8690476 61.2426036,25.7142857 C60.1775148,27.202381 59.9408284,29.1071429 59.2899408,30.7738095 C58.2248521,33.5119048 57.3372781,36.25 56.3313609,38.9880952 C56.035503,39.2857143 55.7988166,39.702381 55.6213018,40.1190476 Z" id="Shape" fill="#A2C7F4"></path>
            </g>
        </g>
    </g>
</svg>